<?xml version="1.0" standalone="no"?>
<!DOCTYPE svg PUBLIC "-//W3C//DTD SVG 20010904//EN"
 "http://www.w3.org/TR/2001/REC-SVG-20010904/DTD/svg10.dtd">
<svg version="1.0" xmlns="http://www.w3.org/2000/svg"
 width="1237.000000pt" height="1295.000000pt" viewBox="0 0 1237.000000 1295.000000"
 preserveAspectRatio="xMidYMid meet">

<g transform="translate(0.000000,1295.000000) scale(0.100000,-0.100000)"
fill="#000000" stroke="none">
<path d="M6070 12020 c-14 -4 -54 -9 -90 -10 -36 0 -83 -5 -105 -10 -26 -6 23
-7 140 -3 431 14 678 17 692 9 8 -4 84 -10 167 -12 166 -4 137 9 -49 21 -155
11 -727 14 -755 5z"/>
<path d="M5730 11983 c-30 -2 -62 -6 -70 -10 -8 -3 -42 -8 -75 -9 -33 -2 -71
-8 -85 -13 -14 -5 -54 -12 -89 -16 -35 -3 -71 -10 -80 -14 -15 -9 -179 -45
-271 -61 -25 -5 -69 -18 -98 -29 -35 -14 -77 -21 -125 -22 -40 0 -92 -4 -117
-8 l-45 -8 33 -8 c38 -9 40 -19 7 -41 -19 -12 -47 -16 -121 -15 -63 1 -93 -2
-89 -9 3 -5 17 -10 30 -10 42 0 37 -18 -11 -39 -37 -17 -66 -21 -146 -20 -55
0 -102 -2 -106 -5 -3 -3 12 -6 34 -6 35 0 76 -14 64 -22 -45 -29 -80 -38 -148
-39 -42 -1 -90 -5 -107 -9 -27 -7 -25 -8 17 -9 26 0 49 -5 52 -9 3 -5 -9 -19
-26 -32 -26 -19 -41 -22 -118 -21 -51 1 -91 -3 -95 -9 -4 -6 7 -10 28 -10 39
0 48 -6 40 -26 -12 -31 -61 -45 -151 -42 -61 1 -94 -3 -112 -13 -24 -14 -23
-14 30 -17 30 -2 59 -7 64 -13 6 -6 6 -9 0 -9 -6 0 -21 -9 -34 -20 -20 -17
-38 -20 -119 -20 -64 -1 -102 -5 -113 -14 -28 -21 -22 -26 36 -26 62 0 80 -14
42 -32 -14 -6 -26 -15 -26 -19 0 -5 -47 -10 -105 -11 -108 -3 -142 -19 -63
-28 24 -3 49 -9 56 -13 15 -10 16 -27 1 -27 -6 0 -22 -9 -36 -20 -22 -17 -41
-20 -122 -20 -69 -1 -102 -5 -115 -15 -18 -14 -13 -15 52 -15 56 0 72 -3 72
-14 0 -8 -9 -18 -20 -21 -11 -3 -20 -10 -20 -14 0 -15 -45 -28 -70 -20 -54 15
-210 -18 -165 -35 9 -3 36 -6 60 -6 24 0 46 -4 49 -9 3 -5 -10 -23 -30 -40
-32 -29 -40 -31 -80 -25 -60 9 -154 -4 -154 -21 0 -9 18 -13 66 -13 36 0 68
-3 71 -5 2 -3 -12 -24 -32 -46 l-37 -41 -92 2 c-55 1 -99 -3 -111 -10 -17 -9
-7 -11 55 -12 91 0 114 -11 85 -37 -70 -64 -72 -64 -172 -57 -79 6 -96 4 -119
-11 -38 -25 -16 -34 72 -29 41 2 74 1 74 -4 0 -13 -69 -82 -82 -83 -7 -1 -47
0 -90 1 -75 2 -124 -12 -113 -31 4 -5 35 -9 70 -9 35 0 66 -4 69 -8 3 -5 -8
-28 -25 -50 -28 -38 -40 -47 -61 -43 -4 0 -42 1 -85 2 -82 1 -113 -6 -113 -25
0 -7 25 -10 81 -8 81 4 81 4 74 -20 -4 -13 -14 -27 -21 -31 -8 -4 -14 -14 -14
-22 0 -19 -27 -25 -140 -28 -116 -3 -124 -21 -10 -25 44 -2 80 -6 80 -11 0 -4
-13 -27 -30 -49 -55 -76 -31 -65 53 24 153 164 513 511 569 549 21 14 55 43
75 63 21 21 56 51 78 67 22 17 42 32 45 35 4 5 177 134 239 178 13 9 29 22 35
27 19 16 49 34 81 48 17 8 67 37 110 64 44 27 87 53 95 56 8 4 29 15 45 25 17
10 53 31 80 46 28 16 57 34 66 42 8 8 23 14 32 14 9 0 19 4 22 10 3 5 23 17
43 26 20 9 61 27 90 40 90 42 166 76 197 89 17 7 56 25 88 39 32 14 62 26 67
26 6 0 18 4 28 9 42 21 94 41 107 41 15 0 23 3 83 33 19 9 45 17 58 17 13 0
32 4 42 9 29 14 86 33 117 38 17 3 35 9 40 13 6 4 27 10 48 14 20 4 37 11 37
16 0 6 19 10 43 10 23 0 51 7 61 15 11 8 37 15 58 15 21 0 38 5 38 10 0 6 15
10 33 10 17 0 48 5 67 11 37 11 114 25 220 38 36 5 78 14 93 20 16 6 55 11 88
11 38 0 58 4 54 10 -3 6 -12 9 -18 8 -7 -1 -37 -3 -67 -5z"/>
<path d="M7078 11973 c23 -2 59 -2 80 0 20 2 1 4 -43 4 -44 0 -61 -2 -37 -4z"/>
<path d="M7270 11950 c0 -6 25 -9 58 -9 56 1 57 1 17 10 -55 11 -75 11 -75 -1z"/>
<path d="M7396 11932 c-8 -13 96 -24 108 -12 7 7 -4 10 -31 10 -23 0 -48 3
-56 6 -8 3 -18 1 -21 -4z"/>
<path d="M7535 11900 c3 -5 27 -10 53 -9 38 1 42 2 22 9 -37 12 -82 12 -75 0z"/>
<path d="M7673 11873 c9 -2 25 -2 35 0 9 3 1 5 -18 5 -19 0 -27 -2 -17 -5z"/>
<path d="M7760 11850 c0 -5 17 -10 38 -9 33 1 34 2 12 9 -36 11 -50 11 -50 0z"/>
<path d="M7863 11823 c9 -2 23 -2 30 0 6 3 -1 5 -18 5 -16 0 -22 -2 -12 -5z"/>
<path d="M7940 11800 c0 -5 11 -10 24 -10 13 0 37 -7 52 -15 16 -8 37 -15 47
-15 9 0 25 -4 35 -9 28 -14 85 -33 115 -38 15 -3 30 -9 33 -14 3 -5 16 -9 29
-9 13 0 36 -6 52 -14 65 -32 81 -37 109 -33 26 4 25 4 -7 6 -23 0 -39 7 -43
16 -3 8 -16 15 -29 15 -13 0 -27 3 -31 7 -8 8 -51 24 -176 64 -52 17 -112 37
-133 45 -44 16 -77 18 -77 4z"/>
<path d="M6190 11774 c-8 -2 -78 -8 -155 -14 -202 -15 -424 -45 -565 -75 -41
-9 -93 -20 -115 -24 -22 -5 -69 -16 -105 -26 -36 -9 -81 -20 -100 -24 -52 -11
-394 -119 -445 -140 -11 -4 -69 -27 -130 -51 -60 -24 -147 -60 -193 -82 -46
-21 -87 -38 -91 -38 -8 0 -231 -112 -296 -149 -254 -144 -562 -346 -690 -452
-11 -10 -56 -46 -100 -81 -101 -80 -189 -163 -390 -363 -198 -198 -288 -295
-373 -405 -36 -47 -89 -110 -117 -140 -45 -50 -325 -458 -325 -474 0 -3 -11
-23 -24 -44 -31 -48 -150 -274 -222 -422 -87 -178 -98 -206 -193 -465 -54
-148 -83 -241 -115 -360 -15 -55 -31 -113 -36 -130 -37 -127 -103 -465 -121
-620 -6 -44 -14 -127 -19 -185 -5 -58 -13 -159 -19 -225 -13 -150 -13 -465 0
-610 33 -378 39 -421 79 -640 18 -98 42 -210 50 -235 5 -14 12 -41 15 -60 4
-19 11 -48 15 -65 5 -16 16 -57 25 -90 77 -278 236 -707 324 -875 4 -8 38 -73
76 -145 85 -165 120 -226 161 -292 19 -28 34 -54 34 -56 0 -20 291 -430 349
-492 26 -27 64 -71 85 -97 20 -26 42 -53 49 -60 7 -7 43 -49 82 -93 75 -86
323 -336 445 -449 227 -210 600 -478 885 -636 33 -18 74 -41 90 -50 35 -20 19
-25 283 96 41 19 76 34 78 34 3 0 31 12 62 26 103 46 156 71 212 96 50 23 101
46 185 83 17 7 62 28 100 45 66 30 140 64 210 95 17 7 55 24 85 38 30 14 96
42 145 63 50 21 122 54 160 74 l70 35 3 1451 2 1451 -57 53 c-32 30 -210 204
-396 387 l-338 333 -185 0 c-165 0 -190 -2 -226 -20 -23 -11 -45 -20 -49 -20
-4 0 -38 -14 -76 -31 -37 -16 -77 -34 -88 -39 -11 -4 -40 -17 -65 -28 -25 -11
-95 -41 -156 -66 l-112 -47 -7 -46 c-4 -26 -14 -58 -23 -72 -25 -38 -71 -81
-87 -81 -7 0 -17 -4 -20 -10 -3 -6 -32 -10 -64 -10 -46 0 -66 6 -104 30 -26
16 -53 30 -59 30 -6 0 -38 -13 -72 -29 -34 -15 -72 -32 -86 -36 -24 -7 -122
-51 -225 -101 -45 -22 -52 -29 -64 -72 -16 -55 -42 -87 -93 -113 -46 -24 -87
-24 -129 -1 -66 35 -89 71 -89 140 0 148 141 218 262 130 18 -13 15 -14 116
36 30 14 58 26 63 26 4 0 34 12 66 26 32 15 74 33 93 41 19 8 43 18 52 23 10
6 24 10 33 10 18 0 35 31 35 67 1 49 42 115 94 151 41 27 57 32 106 32 50 0
65 -5 111 -35 50 -34 53 -35 83 -21 79 37 145 66 150 66 4 0 25 9 49 19 23 11
73 33 110 50 38 17 75 31 82 31 8 0 17 5 20 10 3 6 14 10 24 10 10 0 26 9 36
20 17 18 17 20 -1 43 -11 13 -47 60 -81 103 -35 43 -91 116 -125 160 -35 45
-70 84 -80 87 -18 5 -56 -2 -223 -43 -27 -7 -66 -16 -85 -20 -19 -5 -60 -15
-91 -24 -31 -9 -64 -16 -74 -16 -10 0 -32 -4 -49 -9 -17 -6 -60 -17 -96 -25
-146 -33 -288 -68 -340 -82 -96 -26 -122 -33 -245 -59 -66 -15 -138 -31 -160
-37 -22 -6 -56 -15 -75 -19 -19 -4 -66 -15 -105 -24 -38 -9 -86 -18 -105 -21
-19 -3 -44 -9 -55 -14 -11 -5 -32 -11 -46 -14 -23 -5 -27 -12 -32 -58 -12
-114 -84 -216 -192 -270 -55 -28 -69 -31 -156 -31 -89 1 -101 3 -155 33 -62
33 -154 123 -154 150 0 9 -5 21 -10 26 -16 16 -26 131 -18 196 13 100 89 208
178 252 72 37 158 51 222 36 118 -26 197 -85 247 -185 14 -29 28 -44 36 -41 8
3 31 8 52 11 21 4 45 9 53 13 16 6 97 27 165 42 22 4 69 16 105 25 36 9 83 20
105 25 22 5 69 16 105 24 36 9 88 21 115 26 28 5 75 17 105 25 30 9 73 20 95
25 51 11 78 21 86 32 5 7 -166 187 -258 271 -31 29 -161 87 -194 87 -11 0 -27
4 -37 9 -15 7 -56 20 -167 51 -223 61 -259 72 -277 81 -10 5 -34 9 -53 9 -30
0 -37 -5 -46 -27 -21 -61 -44 -91 -88 -121 -41 -29 -54 -32 -117 -32 -63 0
-76 3 -111 29 -67 49 -87 86 -91 166 -2 58 1 77 20 109 49 84 126 118 233 101
37 -5 56 -16 89 -49 23 -23 51 -60 62 -81 19 -41 44 -55 134 -75 69 -16 125
-32 145 -40 11 -5 31 -11 45 -14 14 -3 50 -12 80 -21 148 -44 160 -43 160 12
-1 114 -44 219 -166 406 l-49 74 -56 -5 c-43 -3 -62 0 -83 13 -33 22 -56 64
-56 102 0 38 34 91 68 104 36 14 108 4 131 -18 27 -26 43 -84 35 -131 -6 -37
-2 -46 30 -90 20 -27 36 -53 36 -56 0 -3 22 -41 48 -84 26 -42 53 -89 60 -104
20 -48 42 -157 42 -214 0 -60 -3 -58 115 -101 40 -15 79 -47 212 -180 155
-155 165 -163 202 -163 22 0 52 5 68 11 26 10 49 15 173 38 28 6 65 14 83 20
49 15 162 42 246 59 19 4 36 12 38 18 2 6 -13 31 -33 55 -20 24 -82 103 -137
174 -56 72 -124 157 -151 190 -28 34 -64 78 -81 99 -86 111 -279 352 -285 356
-3 3 -26 32 -50 65 -24 33 -51 67 -58 75 -8 8 -34 44 -58 80 -24 36 -69 97
-99 135 -30 39 -73 96 -96 127 -48 66 -64 74 -107 52 -59 -29 -166 -54 -233
-54 -208 0 -413 144 -490 345 -14 35 -39 163 -39 195 0 37 29 161 41 174 5 6
9 16 9 24 0 23 87 148 121 173 17 13 36 29 42 35 24 21 103 63 152 80 76 26
250 23 338 -6 135 -44 260 -166 316 -310 46 -120 37 -291 -23 -412 -20 -40
-36 -77 -36 -82 0 -11 80 -109 92 -114 5 -2 8 -10 8 -17 0 -7 28 -48 63 -92
34 -43 88 -112 119 -153 31 -41 90 -116 130 -166 40 -50 113 -142 162 -205 92
-117 120 -149 132 -149 3 0 3 21 0 48 -3 26 -10 112 -15 192 -5 80 -12 154
-15 165 -6 18 -13 105 -36 435 -4 69 -11 139 -14 155 -6 29 -18 171 -36 425
-11 165 -29 354 -40 433 -6 37 -10 94 -10 126 l0 58 -72 36 c-132 66 -186 184
-141 307 44 121 126 180 249 180 110 0 187 -50 239 -155 61 -125 7 -268 -126
-336 l-39 -19 6 -78 c3 -42 9 -121 15 -175 6 -53 14 -161 20 -240 20 -311 27
-388 33 -394 4 -4 13 0 20 8 12 12 188 352 293 564 19 39 39 79 45 89 6 11 63
124 128 250 64 127 126 247 138 267 48 85 152 296 152 310 0 8 -14 27 -30 43
-110 103 -119 310 -20 435 79 100 157 140 273 141 65 0 88 -5 140 -29 74 -35
125 -86 164 -161 79 -157 12 -378 -139 -451 -93 -45 -137 -54 -218 -40 -33 5
-59 5 -66 0 -6 -5 -46 -78 -89 -161 -42 -84 -81 -157 -85 -163 -14 -18 -267
-519 -275 -544 l-7 -24 73 7 c41 5 119 12 174 17 189 16 171 8 408 166 119 80
217 148 217 151 0 4 -25 20 -56 36 -46 24 -69 47 -127 125 -57 75 -78 97 -103
102 -48 9 -54 17 -54 69 0 57 21 76 70 65 42 -9 54 -30 52 -89 -2 -41 2 -56
20 -76 13 -14 40 -51 61 -83 29 -44 49 -64 83 -79 81 -35 109 -35 162 3 26 18
50 37 53 42 4 5 -4 31 -17 57 -41 82 -27 166 39 233 107 106 292 56 342 -93
16 -49 16 -55 0 -105 -36 -116 -150 -171 -275 -134 -36 11 -38 10 -164 -75
-193 -131 -316 -219 -316 -228 0 -5 30 -30 66 -57 87 -64 183 -90 391 -107
l82 -7 7 27 c10 39 63 76 110 76 118 0 167 -130 78 -207 -59 -51 -120 -44
-176 21 -29 33 -23 31 -273 65 -129 18 -191 42 -257 101 -9 8 -33 24 -52 34
l-35 19 -70 -37 c-41 -22 -83 -36 -104 -36 -20 0 -47 -4 -62 -10 -25 -10 -166
-27 -300 -37 -38 -3 -76 -10 -83 -16 -7 -5 -47 -80 -89 -166 -41 -86 -96 -196
-121 -246 -25 -49 -69 -137 -98 -195 l-53 -105 9 -155 c5 -85 12 -171 16 -190
3 -19 10 -96 15 -170 9 -142 33 -433 45 -536 6 -59 11 -66 103 -181 53 -66
125 -157 161 -203 36 -46 70 -88 76 -94 5 -6 30 -38 54 -70 24 -33 51 -69 61
-80 92 -111 131 -159 166 -206 62 -85 58 -84 199 -82 69 1 157 -5 195 -12 70
-13 86 -11 70 8 -4 6 -21 34 -36 61 -117 208 -120 217 -147 344 -10 52 -17 65
-38 74 -14 5 -39 16 -57 23 -17 8 -35 14 -40 14 -23 0 -138 64 -167 93 -17 18
-71 78 -119 135 -88 101 -88 102 -133 102 -37 0 -51 6 -74 29 -39 39 -46 73
-25 120 33 75 120 95 174 40 17 -17 31 -38 32 -47 2 -39 -3 -88 -12 -98 -14
-17 172 -241 231 -279 46 -29 199 -87 211 -79 5 3 9 122 9 270 l0 266 -26 21
c-60 51 -72 64 -88 94 -10 21 -16 57 -16 101 0 60 4 74 29 109 50 69 85 87
166 87 83 0 118 -16 168 -74 23 -28 37 -56 41 -85 20 -132 -55 -235 -183 -254
l-46 -6 -3 -81 c-3 -92 -1 -95 88 -126 69 -25 104 -28 201 -21 84 6 91 8 122
39 33 35 64 43 85 22 20 -20 13 -37 -19 -45 -37 -10 -35 -29 4 -27 17 1 27 -3
27 -12 0 -10 -13 -14 -45 -14 -26 0 -45 5 -45 11 0 11 -56 9 -195 -7 -37 -4
-66 1 -110 16 -33 12 -71 23 -85 23 l-25 2 2 -185 c2 -102 8 -221 14 -265 11
-77 18 -95 92 -225 11 -19 44 -82 74 -139 29 -57 62 -115 72 -130 31 -43 561
-566 574 -566 9 0 13 158 15 704 l2 704 -31 56 c-18 31 -41 72 -52 91 -11 19
-43 80 -72 135 -29 55 -62 116 -73 135 -27 45 -39 67 -91 165 -24 44 -47 85
-51 90 -11 15 -103 183 -167 305 -22 41 -54 101 -72 133 l-33 57 -90 0 c-83 0
-97 3 -162 34 -115 56 -181 141 -206 268 -33 163 49 322 204 400 53 27 72 31
147 32 55 1 96 -4 115 -13 16 -8 44 -21 63 -30 61 -29 119 -90 153 -159 30
-61 33 -76 33 -158 0 -56 -5 -102 -14 -120 -19 -41 -36 -74 -57 -109 -16 -29
-16 -33 2 -70 10 -22 46 -87 79 -145 33 -58 80 -143 104 -190 25 -47 55 -102
68 -122 12 -21 23 -40 23 -44 0 -3 8 -18 19 -32 10 -15 34 -56 53 -92 87 -162
112 -207 133 -240 12 -19 44 -78 72 -130 27 -52 61 -113 74 -135 l24 -40 5
-2445 c4 -1834 9 -2488 18 -2615 14 -181 9 -241 -24 -329 l-19 -48 25 -17 c59
-39 144 -118 186 -173 25 -32 49 -57 52 -54 8 8 4 7185 -4 7210 -4 11 -17 37
-30 57 -33 53 -211 370 -256 459 -36 70 -39 79 -33 135 3 33 13 94 21 135 9
41 20 98 25 125 9 53 34 186 49 270 5 28 17 88 25 135 9 47 22 117 30 155 22
111 25 139 17 151 -4 6 -45 44 -92 84 -47 41 -105 93 -130 116 -25 23 -81 72
-125 110 -44 37 -118 102 -165 144 -123 109 -108 103 -171 79 -121 -46 -237
14 -260 134 -4 23 -6 52 -3 65 2 12 6 33 9 47 7 35 62 93 103 110 72 31 171
11 222 -44 31 -32 50 -89 50 -148 1 -58 1 -58 52 -98 28 -22 63 -51 77 -65 50
-48 204 -180 210 -180 9 1 65 78 88 120 17 33 38 96 62 185 6 22 17 66 26 99
l16 58 -40 37 c-38 35 -41 42 -41 93 0 47 4 58 28 82 76 71 192 21 192 -84 0
-49 -42 -109 -78 -110 -14 0 -28 -31 -43 -99 -9 -42 -9 -47 12 -61 42 -28 94
-40 174 -39 111 0 199 20 204 45 10 59 85 75 120 25 27 -38 26 -52 -4 -85 -27
-29 -60 -33 -91 -12 -15 11 -36 12 -94 6 -113 -14 -231 -12 -260 3 -65 34 -79
29 -100 -38 -26 -82 -45 -122 -88 -183 -24 -34 -42 -68 -40 -75 2 -7 44 -49
93 -94 191 -172 205 -187 205 -220 0 -17 -6 -64 -14 -104 -8 -41 -26 -137 -40
-214 -15 -77 -31 -159 -36 -183 -6 -23 -10 -54 -10 -68 0 -14 -6 -53 -14 -87
-46 -193 -70 -348 -59 -366 5 -9 27 -47 48 -86 20 -38 49 -90 63 -115 53 -91
73 -126 99 -178 38 -74 41 -70 114 158 17 52 35 104 39 115 46 116 48 136 19
177 -52 73 -52 189 0 247 31 35 87 61 130 61 25 0 34 7 51 40 11 21 20 48 20
58 0 10 3 22 6 25 7 6 38 94 94 259 l29 88 -24 49 c-29 56 -31 85 -11 132 18
44 51 73 98 88 74 24 168 -30 182 -104 15 -79 -14 -129 -103 -177 -39 -21 -46
-30 -68 -93 -13 -38 -28 -83 -33 -100 -17 -63 -51 -171 -60 -190 -33 -76 -33
-92 1 -152 52 -90 44 -168 -23 -244 -26 -29 -88 -59 -123 -59 -29 0 -39 -13
-59 -80 -10 -30 -21 -64 -26 -75 -5 -11 -16 -42 -25 -70 -10 -27 -21 -59 -25
-70 -4 -11 -15 -42 -25 -70 -9 -27 -20 -59 -25 -70 -43 -105 -40 135 -40
-3899 0 -2083 3 -3792 6 -3797 9 -14 647 -12 662 3 9 9 12 671 12 2915 0 2806
-1 2906 -19 2961 -10 31 -31 98 -46 147 -57 189 -137 420 -148 427 -7 4 -23 8
-35 8 -31 0 -80 28 -115 64 -55 59 -60 166 -11 240 29 43 29 42 -22 186 -12
36 -35 106 -49 155 -40 131 -57 177 -69 180 -6 2 -23 6 -38 9 -15 4 -43 22
-63 41 -33 34 -35 40 -35 101 0 50 5 73 20 94 64 89 214 77 262 -20 24 -49 22
-98 -7 -149 -27 -47 -30 -62 -16 -89 12 -23 31 -79 81 -242 61 -200 53 -186
111 -193 31 -4 64 -17 89 -34 44 -31 90 -110 90 -153 0 -38 -27 -100 -57 -132
-25 -27 -26 -28 -11 -70 9 -24 24 -70 33 -103 22 -73 55 -139 55 -110 0 11 1
310 3 665 l2 645 34 60 c41 72 63 112 126 230 26 50 59 110 73 135 14 25 42
77 62 115 l37 71 -19 104 c-10 58 -22 130 -27 160 -5 30 -18 102 -29 160 -20
102 -41 217 -63 350 -6 36 -18 97 -25 137 -8 40 -14 81 -14 92 0 12 53 69 142
153 77 73 187 176 242 229 56 53 132 125 170 160 l68 65 2 80 c1 98 25 140 99
179 50 25 121 34 132 15 3 -5 14 -10 24 -10 30 0 95 -71 109 -119 23 -76 -6
-167 -66 -209 -43 -30 -112 -45 -145 -33 -64 25 -85 16 -176 -72 -82 -78 -318
-299 -428 -401 -51 -47 -53 -51 -53 -100 0 -28 4 -67 10 -86 5 -19 14 -64 20
-100 5 -36 17 -101 25 -145 8 -44 19 -109 25 -145 5 -36 17 -96 25 -135 16
-72 26 -121 50 -260 l14 -80 -39 -80 c-42 -86 -88 -169 -165 -305 -27 -47 -62
-110 -78 -140 -16 -30 -36 -66 -45 -79 -13 -22 -15 -411 -13 -3565 1 -1948 1
-3569 1 -3603 0 -35 3 -63 8 -63 4 0 25 26 47 57 46 65 99 121 169 178 l49 40
-21 47 c-40 91 -47 148 -32 271 12 92 14 543 13 2582 l-1 2470 38 70 c21 39
54 99 75 135 20 36 51 90 68 120 16 30 38 69 48 87 10 18 35 63 55 100 20 37
47 86 59 108 13 22 37 67 55 100 53 99 91 166 138 245 47 80 101 176 112 200
4 8 15 30 24 48 17 32 17 32 -20 92 -21 34 -42 86 -50 122 -34 160 59 339 213
410 53 23 76 28 145 28 71 0 92 -4 143 -29 76 -36 153 -117 184 -193 32 -81
28 -207 -11 -290 -30 -65 -108 -148 -159 -170 -19 -8 -47 -21 -64 -28 -16 -8
-68 -14 -115 -14 l-85 -1 -47 -83 c-78 -136 -98 -172 -156 -282 -30 -57 -77
-142 -104 -189 -26 -46 -48 -86 -48 -88 0 -2 -10 -20 -23 -41 -13 -20 -48 -82
-77 -137 -76 -143 -101 -189 -110 -200 -5 -5 -24 -41 -44 -79 l-36 -69 0 -703
c0 -668 1 -704 18 -704 10 0 25 8 33 18 17 18 262 257 449 437 63 61 134 126
156 145 23 19 57 62 75 95 18 33 41 76 52 95 82 146 96 178 106 250 16 111 20
461 6 466 -6 3 -25 0 -41 -7 -66 -26 -141 -38 -175 -29 -56 16 -177 13 -187
-5 -6 -12 -18 -14 -50 -9 -23 4 -42 11 -42 16 0 6 10 8 23 4 36 -9 67 4 73 30
7 26 20 32 26 12 5 -15 175 -27 233 -17 42 8 95 26 133 47 21 12 23 19 20 95
l-3 82 -46 6 c-126 18 -203 121 -186 249 11 83 110 169 198 172 144 4 248
-127 210 -267 -12 -47 -61 -109 -99 -127 l-27 -13 0 -275 0 -275 27 3 c39 4
186 68 224 97 27 21 174 194 197 231 4 6 -1 26 -9 44 -38 76 17 160 106 160
25 0 52 -6 60 -13 50 -39 63 -102 33 -156 -21 -36 -51 -51 -102 -51 -34 0 -42
-6 -89 -62 -82 -101 -194 -212 -232 -229 -46 -22 -97 -43 -140 -59 -78 -27
-77 -26 -94 -119 -13 -67 -31 -116 -84 -221 -37 -74 -67 -139 -67 -144 0 -13
291 -7 319 6 22 10 56 50 209 242 49 61 108 133 130 160 23 27 56 68 72 90 17
23 57 74 90 114 120 147 111 125 124 284 7 79 18 217 26 308 8 91 19 228 25
305 6 77 18 206 26 287 l15 147 -89 178 c-179 356 -271 528 -289 540 -16 10
-76 21 -253 43 -115 14 -215 32 -232 41 -10 5 -23 9 -29 9 -5 0 -25 11 -43 25
-43 33 -65 32 -112 -8 -112 -94 -168 -111 -448 -136 -69 -6 -92 -12 -102 -26
-8 -10 -14 -22 -14 -25 0 -11 -77 -50 -100 -50 -61 0 -110 57 -110 129 0 33 7
47 35 76 30 30 43 35 80 35 39 0 50 -5 85 -40 22 -22 40 -44 40 -50 0 -27 278
5 378 43 48 18 162 100 162 116 0 8 -150 113 -332 235 l-118 78 -44 -11 c-68
-17 -107 -13 -163 14 -74 37 -108 91 -106 171 1 94 49 159 143 191 93 33 190
-13 236 -111 30 -65 30 -101 -1 -162 -14 -27 -25 -54 -25 -61 0 -6 24 -25 54
-42 53 -31 109 -40 121 -21 3 6 14 10 23 10 19 0 56 32 84 71 97 134 101 142
90 160 -16 25 -15 45 4 74 13 20 25 25 57 25 43 0 66 -19 66 -55 0 -26 -32
-65 -54 -65 -40 0 -80 -36 -114 -102 -27 -54 -97 -128 -121 -128 -19 0 -40
-19 -40 -36 0 -12 44 -42 329 -230 110 -72 118 -75 286 -93 44 -5 117 -15 162
-22 53 -8 86 -10 92 -4 8 10 -122 283 -233 490 -27 50 -86 162 -131 250 l-81
160 -86 -3 c-122 -5 -195 22 -279 103 -80 78 -116 210 -85 314 32 108 97 186
194 231 55 26 185 30 245 8 168 -64 266 -260 210 -424 -17 -50 -55 -115 -85
-146 -10 -10 -18 -21 -18 -25 0 -9 139 -287 295 -588 59 -115 183 -358 274
-540 168 -333 196 -384 206 -373 8 8 23 155 35 348 6 85 16 241 24 345 7 105
12 195 9 200 -2 6 -26 24 -52 42 -27 18 -61 47 -76 66 -34 46 -61 148 -47 185
6 15 13 39 16 53 8 36 89 125 134 146 70 34 191 20 253 -29 38 -31 86 -108 98
-159 12 -48 11 -61 -3 -103 -28 -82 -79 -143 -146 -172 -19 -9 -42 -19 -50
-23 -16 -8 -22 -47 -34 -221 -8 -115 -33 -375 -46 -485 -6 -44 -10 -106 -10
-138 0 -32 -6 -115 -14 -185 -20 -178 -33 -343 -51 -667 -9 -154 -19 -312 -23
-351 -4 -39 -6 -77 -4 -83 2 -7 25 15 51 47 25 33 62 79 81 103 40 49 100 125
245 309 54 69 160 202 234 295 190 238 177 210 137 292 -19 37 -42 107 -52
154 -17 82 -17 89 1 173 10 48 22 89 27 92 4 3 8 12 8 20 0 9 19 46 43 82 98
151 254 232 446 232 110 -1 168 -17 260 -73 173 -108 272 -314 241 -507 -13
-85 -16 -93 -54 -172 -48 -99 -184 -215 -291 -248 -22 -7 -50 -16 -63 -21 -67
-26 -244 -3 -334 42 -21 11 -43 19 -50 19 -7 0 -40 -35 -72 -78 -33 -42 -116
-149 -185 -236 -178 -226 -474 -600 -551 -696 -36 -45 -81 -106 -100 -135 -19
-29 -74 -105 -122 -167 -49 -63 -88 -119 -88 -125 0 -7 35 -19 78 -28 42 -9
88 -20 102 -25 94 -30 358 -92 379 -88 10 2 89 70 176 153 179 171 188 178
267 202 33 9 63 22 68 28 6 7 15 58 20 114 6 57 15 110 19 119 4 10 16 35 27
57 10 22 52 93 92 158 74 118 74 119 73 186 -1 63 1 69 30 97 26 25 38 29 86
29 49 0 57 -3 79 -30 33 -41 40 -85 20 -127 -24 -51 -67 -72 -130 -64 -50 5
-54 4 -74 -24 -12 -16 -22 -34 -22 -40 0 -5 -4 -10 -9 -10 -5 0 -11 -8 -15
-17 -3 -10 -17 -36 -31 -58 -63 -98 -88 -165 -98 -262 -6 -58 -6 -98 0 -104 8
-8 27 -4 163 33 19 5 51 13 70 18 19 5 60 16 90 25 71 21 104 31 163 47 43 12
50 18 71 64 73 157 281 176 367 34 8 -14 21 -44 27 -66 24 -83 -30 -199 -111
-238 -48 -22 -138 -21 -185 3 -53 27 -96 81 -116 144 -6 19 -42 22 -90 7 -17
-5 -58 -17 -91 -26 -33 -9 -78 -22 -100 -29 -22 -7 -60 -18 -85 -25 -25 -7
-63 -18 -85 -25 -22 -7 -60 -18 -85 -25 -103 -28 -197 -64 -225 -87 -56 -47
-275 -264 -275 -273 0 -10 63 -31 160 -54 265 -62 680 -162 715 -172 11 -2 44
-11 73 -20 30 -8 57 -12 62 -9 4 3 22 29 39 59 17 30 41 64 53 76 43 41 122
79 187 90 115 21 246 -27 313 -113 46 -58 58 -81 74 -144 20 -76 17 -128 -10
-205 -28 -80 -61 -127 -119 -166 -69 -47 -124 -64 -207 -64 -87 0 -141 18
-213 70 -59 42 -93 99 -121 204 l-23 81 -44 13 c-59 16 -344 85 -394 94 -46 9
-203 46 -255 60 -19 5 -93 23 -165 40 -71 17 -146 35 -165 40 -19 5 -66 16
-105 25 -38 9 -86 21 -105 26 -157 41 -241 62 -360 89 -19 4 -42 10 -50 13
-64 23 -65 22 -144 -75 -41 -51 -109 -136 -151 -188 l-77 -94 28 -23 c16 -13
35 -23 42 -23 7 0 20 -4 30 -9 28 -16 173 -81 224 -102 26 -10 80 -35 119 -55
l72 -36 26 21 c14 12 46 31 70 42 103 49 220 -21 251 -151 8 -30 18 -60 24
-67 6 -6 63 -32 126 -58 63 -26 158 -67 210 -92 l95 -44 40 23 c146 82 297
-58 224 -208 -37 -77 -131 -104 -216 -63 -46 22 -73 60 -82 118 -7 40 -8 41
-181 111 -86 35 -120 50 -194 86 -82 40 -87 40 -111 14 -44 -49 -145 -66 -204
-36 -43 23 -89 81 -101 128 -20 77 -32 90 -95 115 -33 13 -73 30 -90 38 -16 7
-56 25 -87 39 -31 14 -59 26 -61 26 -2 0 -61 27 -130 60 l-126 60 -186 0 -185
0 -253 -249 c-138 -137 -318 -313 -400 -393 l-147 -144 2 -1449 3 -1449 85
-36 c47 -20 119 -53 160 -72 138 -66 274 -130 345 -163 39 -18 131 -62 205
-97 74 -36 151 -72 170 -80 19 -9 64 -30 100 -46 36 -16 88 -40 115 -52 28
-12 106 -49 174 -81 67 -33 129 -59 137 -59 8 0 32 11 54 25 22 14 42 25 45
25 7 0 268 161 275 170 3 3 46 35 95 70 89 63 290 215 311 235 6 5 30 26 54
45 186 149 497 450 637 615 28 33 69 83 92 110 24 28 59 68 80 90 70 75 221
289 356 505 41 65 75 122 75 125 0 3 16 30 35 60 61 95 208 393 256 520 11 28
23 59 28 70 5 11 15 36 21 55 7 19 19 49 26 65 29 70 64 172 64 186 0 8 4 19
9 25 4 5 16 34 25 64 9 30 27 91 40 135 23 75 47 165 66 245 4 19 14 58 20 85
13 53 24 111 39 210 4 33 13 85 19 115 17 86 30 200 48 397 25 284 10 826 -31
1103 -3 19 -12 85 -21 145 -8 61 -20 124 -25 141 -5 17 -9 39 -9 50 0 17 -6
46 -40 194 -11 48 -41 160 -50 190 -4 14 -15 50 -24 80 -46 158 -144 440 -157
455 -5 5 -9 15 -9 22 0 7 -11 36 -25 65 -14 28 -25 55 -25 60 0 12 -44 107
-125 268 -101 203 -147 287 -237 430 -43 69 -84 134 -91 145 -34 55 -184 264
-208 288 -14 15 -80 93 -145 172 -66 80 -216 241 -334 358 -220 219 -375 354
-560 490 -58 43 -113 84 -122 92 -10 8 -37 27 -60 41 -24 15 -61 41 -83 58
-108 86 -488 299 -705 396 -41 18 -95 42 -120 53 -43 19 -147 59 -200 77 -14
5 -83 29 -155 54 -71 25 -139 46 -151 46 -11 0 -24 4 -30 9 -5 6 -29 15 -54
21 -25 6 -61 15 -80 20 -80 21 -167 42 -205 50 -22 4 -76 16 -120 25 -44 10
-105 21 -135 25 -307 41 -365 48 -526 60 -129 9 -569 12 -604 4z m2680 -664
c0 -5 -48 -47 -106 -92 -59 -46 -156 -122 -218 -170 -129 -102 -152 -116 -167
-101 -7 7 -1 18 23 34 18 13 61 46 94 74 34 27 96 77 139 110 43 33 84 65 90
72 7 6 38 30 70 52 53 38 75 43 75 21z m1013 -754 c-6 -11 -18 -48 -28 -81 -9
-33 -21 -71 -25 -85 -4 -14 -16 -54 -25 -90 -9 -36 -21 -74 -25 -85 -4 -11
-16 -49 -25 -85 -10 -36 -24 -84 -31 -108 -8 -23 -14 -49 -14 -57 0 -8 -4 -15
-8 -15 -5 0 -13 -12 -19 -27 -9 -23 -11 -24 -12 -8 -2 36 31 170 94 385 28 93
33 113 46 160 6 25 16 49 20 55 5 5 9 18 9 30 0 11 7 31 16 44 15 21 18 22 27
6 6 -11 6 -25 0 -39z m-2078 -121 l-47 -41 15 -49 c9 -28 21 -70 27 -95 6 -25
15 -58 20 -75 27 -94 21 -133 -13 -81 -21 32 -103 84 -143 92 -46 9 -44 29 14
139 38 72 59 99 107 138 49 39 61 45 64 31 2 -11 -14 -33 -44 -59z m55 -411
c0 -14 -4 -22 -10 -19 -5 3 -10 17 -10 31 0 14 4 22 10 19 6 -3 10 -17 10 -31z
m55 -179 c7 -27 11 -53 9 -57 -9 -14 -48 -8 -72 10 -23 18 -23 19 -8 63 9 24
16 54 16 66 0 12 3 30 7 40 7 19 15 -1 48 -122z m2667 -12 c24 -32 45 -60 48
-63 4 -3 21 -27 40 -55 18 -27 58 -86 88 -130 30 -44 58 -89 63 -100 5 -11 15
-29 21 -40 94 -147 241 -425 300 -565 19 -47 36 -85 62 -143 14 -32 26 -62 26
-67 0 -6 4 -18 10 -28 29 -54 100 -252 155 -437 10 -33 21 -69 26 -80 4 -11
10 -33 12 -50 6 -43 28 -127 38 -147 5 -10 9 -31 9 -47 0 -15 7 -48 15 -71 8
-23 15 -54 15 -68 0 -14 4 -39 9 -56 21 -67 37 -174 60 -401 6 -55 15 -127 21
-160 16 -95 13 -783 -4 -912 -14 -105 -17 -128 -35 -283 -4 -41 -11 -82 -15
-90 -3 -8 -11 -44 -16 -80 -16 -100 -26 -151 -40 -205 -6 -27 -16 -66 -20 -85
-11 -46 -40 -158 -50 -190 -4 -14 -15 -52 -25 -85 -9 -33 -21 -69 -25 -80 -22
-57 -83 -244 -87 -267 -8 -43 -28 -54 -60 -32 -25 15 -109 82 -138 109 -7 6
-26 21 -44 35 -18 14 -38 30 -44 35 -7 6 -52 42 -102 80 -49 38 -92 72 -95 75
-3 3 -25 21 -50 40 -25 19 -52 40 -60 47 -8 6 -85 66 -170 132 -85 66 -171
134 -190 151 -19 16 -39 33 -45 38 -5 4 -23 17 -38 29 l-28 21 24 24 c49 49
61 79 60 155 -2 72 -10 95 -58 152 -43 50 -163 78 -218 49 -46 -24 -53 -25
-77 -15 -78 30 -138 56 -195 82 -27 13 -77 35 -110 50 -33 15 -62 29 -63 30
-2 2 -8 22 -13 45 -11 50 -58 121 -99 150 -43 31 -127 53 -172 46 -48 -8 -57
-3 -183 98 -55 44 -134 106 -173 136 -49 36 -71 59 -67 69 3 8 25 39 48 68 40
51 44 53 82 49 22 -3 60 -9 85 -15 108 -24 147 -33 180 -42 129 -33 330 -82
355 -86 17 -2 37 -7 45 -10 24 -10 121 -34 160 -39 19 -3 44 -9 55 -13 11 -5
56 -16 100 -26 84 -18 169 -39 221 -55 17 -6 43 -10 57 -10 15 0 35 -4 45 -10
16 -8 38 -14 157 -40 161 -35 170 -40 178 -104 9 -61 50 -132 112 -193 53 -51
78 -66 167 -98 52 -19 196 -18 233 2 11 6 38 19 60 29 58 27 146 121 179 190
26 53 28 69 29 169 0 105 -1 113 -33 174 -42 81 -112 151 -191 190 -58 29 -70
31 -169 31 -97 0 -112 -3 -166 -29 -66 -32 -130 -89 -169 -151 -19 -31 -31
-40 -43 -35 -9 3 -35 10 -57 15 -22 5 -69 16 -105 25 -36 10 -83 21 -105 26
-22 4 -67 15 -100 24 -33 9 -78 21 -100 25 -22 5 -69 16 -105 25 -36 9 -83 20
-105 24 -22 5 -47 11 -55 14 -8 3 -41 13 -72 22 -32 8 -58 19 -58 24 0 4 53
57 118 117 90 83 131 113 169 127 28 9 58 17 67 17 9 0 24 4 34 9 9 5 42 15
72 24 30 8 93 27 140 41 105 31 236 66 271 73 22 4 27 0 33 -21 3 -14 11 -26
16 -26 6 0 10 -6 10 -14 0 -19 79 -86 100 -86 9 0 21 -5 28 -12 17 -17 157
-17 173 0 7 6 20 12 29 12 23 0 104 78 125 120 27 52 24 173 -5 229 -51 101
-120 144 -230 145 -117 1 -204 -52 -245 -149 -7 -19 -24 -39 -37 -44 -32 -12
-116 -33 -156 -39 -18 -2 -35 -8 -38 -13 -3 -5 -14 -9 -26 -9 -21 0 -109 -26
-140 -41 -29 -15 -68 -11 -68 7 0 32 23 110 44 154 40 81 88 164 113 198 22
30 29 33 59 28 38 -8 96 13 132 46 67 64 71 180 7 243 -33 33 -68 45 -130 45
-37 0 -65 -4 -65 -10 0 -5 -6 -10 -13 -10 -8 0 -23 -10 -34 -22 -37 -41 -53
-85 -53 -147 0 -56 -4 -67 -48 -133 -66 -99 -123 -204 -134 -247 -6 -20 -14
-74 -18 -120 -4 -46 -13 -87 -20 -91 -7 -4 -31 -13 -54 -20 -69 -21 -79 -28
-207 -152 -203 -196 -216 -205 -286 -177 -15 7 -48 16 -73 20 -86 15 -135 26
-180 38 -25 7 -63 18 -85 24 -65 17 -66 12 24 121 19 23 50 66 69 96 19 30 38
57 41 60 4 3 33 41 66 85 33 44 64 85 70 91 18 20 49 58 85 104 19 25 37 47
40 50 4 3 26 32 51 65 24 33 47 62 50 65 3 3 45 55 93 115 110 139 96 121 196
250 46 61 99 126 117 145 18 19 33 38 33 41 0 3 9 17 21 30 11 13 24 31 29 39
6 11 13 12 32 4 76 -36 104 -43 180 -49 230 -18 397 55 525 233 80 110 103
182 103 327 0 91 -4 121 -26 183 -28 82 -39 101 -97 177 -105 134 -237 199
-437 212 -78 5 -102 3 -127 -11 -50 -25 -91 -19 -64 10 5 5 18 25 28 44 70
126 89 159 110 192 12 21 23 40 23 43 0 3 18 32 40 64 22 32 40 61 40 65 0 8
31 56 36 56 2 0 23 -26 46 -57z m-932 -55 c-12 -53 -22 -88 -45 -163 -7 -22
-24 -78 -39 -125 -14 -47 -37 -120 -51 -164 -14 -43 -25 -85 -25 -93 0 -14
-41 -147 -66 -213 -7 -19 -16 -48 -21 -65 -7 -28 -8 -27 -11 17 -2 26 2 56 7
67 6 11 11 29 11 41 0 24 26 115 41 142 5 10 9 26 9 37 0 10 7 32 15 47 8 16
15 39 15 51 0 12 5 25 10 28 6 3 10 16 10 29 0 12 6 42 14 67 7 24 19 64 26
89 30 108 42 146 51 162 5 10 9 24 9 32 0 8 6 21 13 28 7 7 16 22 20 32 14 37
19 6 7 -46z m-2220 -9 c50 -46 111 -69 184 -69 34 0 67 5 72 10 13 13 49 -2
129 -55 144 -96 191 -136 199 -173 3 -15 8 -36 11 -48 5 -15 -1 -26 -22 -39
-28 -19 -59 -25 -221 -45 -46 -5 -88 -13 -94 -16 -5 -3 -29 14 -54 39 -53 54
-98 72 -160 62 -87 -13 -143 -91 -130 -183 13 -92 85 -148 184 -140 44 4 59
11 90 41 34 33 45 37 143 53 59 9 115 14 125 10 15 -6 12 -10 -16 -31 -80 -59
-140 -191 -140 -308 0 -68 23 -154 57 -209 29 -47 29 -59 0 -106 -13 -20 -48
-82 -77 -137 -81 -152 -93 -174 -140 -255 -24 -41 -54 -95 -67 -119 -13 -24
-36 -65 -50 -90 -15 -25 -42 -75 -61 -111 -19 -36 -40 -74 -47 -85 -6 -11 -27
-47 -45 -80 -18 -33 -41 -73 -50 -90 -9 -16 -32 -57 -50 -90 -18 -33 -38 -66
-44 -74 -7 -9 -13 -83 -16 -190 l-5 -176 -61 -3 c-43 -2 -64 1 -73 11 -9 11
-11 239 -9 933 l3 919 28 42 c15 24 27 44 27 47 0 2 20 39 43 82 24 44 65 120
92 169 26 50 51 95 55 100 4 6 26 44 49 86 40 75 41 79 39 165 -2 90 -2 93 49
177 7 12 18 8 53 -24z m2460 -1052 c0 -15 4 -35 8 -45 5 -9 21 -41 35 -70 24
-48 25 -55 12 -69 -9 -8 -28 -31 -43 -51 -15 -21 -29 -39 -32 -42 -3 -3 -17
-21 -30 -40 -13 -19 -51 -69 -84 -110 -34 -41 -68 -83 -76 -94 -8 -10 -22 -26
-31 -35 -8 -9 -29 -34 -45 -56 -16 -22 -31 -42 -35 -45 -3 -3 -25 -32 -50 -65
-24 -33 -52 -69 -61 -80 -22 -26 -79 -98 -125 -157 -23 -29 -40 -43 -44 -36
-15 24 17 92 156 323 40 66 91 156 115 200 24 44 89 155 146 248 57 92 104
169 104 172 0 3 14 28 31 56 33 53 49 52 49 -4z m-3100 -292 c3 -206 6 -190
-27 -167 -16 11 -52 28 -81 38 -47 17 -52 22 -47 42 9 37 142 248 151 240 1
-2 3 -70 4 -153z m1541 -10 c27 -109 45 -175 67 -240 11 -33 18 -62 16 -64 -2
-3 -21 1 -42 9 -20 7 -71 13 -113 13 -63 0 -82 -4 -116 -26 -58 -37 -98 -89
-118 -158 -16 -51 -17 -66 -6 -113 12 -53 54 -123 95 -158 12 -10 47 -27 79
-39 l58 -22 -3 -46 c-3 -43 -6 -47 -43 -66 -32 -16 -59 -20 -142 -20 l-101 1
-46 42 c-50 46 -85 53 -136 27 -71 -37 -79 -125 -17 -192 26 -30 104 -32 137
-5 18 15 32 17 74 11 82 -12 178 -9 220 6 22 8 43 12 46 10 7 -4 4 -275 -4
-373 -3 -29 -10 -60 -17 -68 -14 -17 -75 -18 -174 -3 -38 6 -108 15 -155 19
-195 21 -277 31 -310 40 -19 6 -58 10 -86 10 -64 0 -64 -2 -64 185 0 106 4
146 14 161 8 11 32 54 54 95 39 74 46 87 130 234 25 44 59 105 75 135 17 30
62 111 100 180 112 199 133 240 220 405 36 67 44 74 82 65 19 -4 60 -2 97 5
106 22 109 21 129 -60z m-1951 -354 c0 -23 -26 -31 -108 -31 -55 0 -63 2 -60
18 4 19 42 28 121 31 40 1 47 -2 47 -18z m-374 -12 c3 -6 2 -14 -2 -19 -5 -5
-111 -14 -237 -21 -179 -10 -230 -10 -240 0 -18 18 5 28 76 30 34 1 109 5 167
10 159 12 228 12 236 0z m-816 -54 c0 -12 -16 -15 -80 -15 -64 0 -80 3 -80 15
0 12 16 15 80 15 64 0 80 -3 80 -15z m-654 -34 c-4 -6 -26 -11 -49 -11 -24 0
-78 -4 -122 -9 -44 -5 -180 -13 -302 -16 -199 -6 -223 -5 -223 9 0 21 17 24
230 32 102 4 246 10 320 13 134 6 159 3 146 -18z m-916 -41 c0 -17 -7 -20 -39
-20 -40 0 -57 11 -46 30 3 6 24 10 46 10 32 0 39 -3 39 -20z m-469 -19 c23
-18 22 -18 -107 -25 -71 -4 -184 -11 -251 -18 -138 -12 -159 -9 -143 22 10 18
21 20 123 21 100 1 332 13 348 17 4 1 17 -6 30 -17z m3325 -21 c21 -16 45 -30
52 -30 8 0 29 -7 47 -16 31 -14 36 -25 65 -117 17 -56 54 -169 81 -252 27 -82
54 -164 59 -181 6 -17 10 -68 10 -113 l0 -83 -27 6 c-16 4 -71 11 -123 16 -86
9 -246 29 -372 46 -26 4 -53 12 -58 20 -8 8 -10 81 -8 217 l3 204 70 103 c125
184 144 210 154 210 4 0 25 -13 47 -30z m2610 -120 c-9 -45 -17 -117 -17 -159
-1 -53 -4 -65 -8 -41 -3 19 -14 50 -24 67 -11 21 -15 43 -12 60 12 55 38 138
46 148 5 5 9 21 9 35 0 15 3 30 8 34 14 15 13 -63 -2 -144z m-6783 114 c3 -4
2 -14 -3 -24 -8 -15 -36 -18 -222 -24 -117 -4 -267 -11 -333 -16 -160 -13
-335 -13 -335 0 0 18 -1 17 450 40 124 6 263 15 310 19 120 12 126 12 133 5z
m-787 -211 c54 -58 104 -111 109 -117 67 -72 121 -144 118 -157 -4 -17 -37 14
-134 125 -19 22 -46 52 -60 67 -48 50 -149 173 -149 181 0 20 23 1 116 -99z
m7017 45 c10 -35 22 -79 27 -98 5 -19 20 -71 34 -115 44 -143 44 -147 -2 -197
-22 -24 -55 -50 -74 -59 -77 -38 -119 -52 -127 -43 -5 5 -6 109 -3 231 l7 221
47 41 c26 23 50 51 53 61 11 33 20 23 38 -42z m-669 -194 c9 -3 16 -13 16 -20
0 -12 -4 -12 -20 -4 -22 12 -60 4 -72 -14 -4 -6 -8 -22 -9 -36 0 -23 -1 -23
-8 -5 -21 52 37 101 93 79z m1184 -73 c-3 -42 -10 -64 -26 -81 -12 -13 -24
-32 -28 -42 -3 -10 -9 -18 -12 -18 -4 0 -25 -29 -47 -65 -58 -95 -80 -88 -49
16 42 137 50 152 85 164 18 6 35 18 37 26 3 8 11 18 18 22 8 4 14 15 14 22 0
8 3 15 6 15 3 0 4 -26 2 -59z m-1196 7 c-6 -6 -16 -7 -22 -3 -9 6 -9 9 1 16
17 10 34 0 21 -13z m-1851 -1404 c-1 -681 -4 -1240 -7 -1243 -3 -3 -34 -7 -69
-9 l-65 -4 0 1156 0 1156 27 43 c44 70 104 149 110 143 3 -2 4 -562 4 -1242z
m2700 1065 c10 -29 21 -72 24 -94 6 -38 3 -45 -40 -98 -27 -33 -56 -57 -66
-57 -17 0 -86 -84 -152 -183 -9 -14 -19 -18 -31 -14 -15 6 -13 12 14 49 17 24
51 71 75 105 l44 62 -57 6 c-31 3 -75 9 -97 13 l-40 7 -3 57 c-4 67 -3 67 133
123 49 21 105 48 125 61 19 13 39 23 44 21 5 -2 17 -28 27 -58z m-6522 -164
c31 -37 66 -75 204 -223 52 -56 55 -62 29 -62 -18 0 -87 67 -160 155 -18 22
-65 74 -104 115 -140 148 -134 140 -118 150 15 9 65 -36 149 -135z m4086 -280
c29 -51 119 -225 255 -490 42 -82 86 -166 97 -185 11 -19 54 -101 96 -181 l77
-147 0 -415 0 -415 -97 -6 c-54 -3 -186 -9 -293 -12 l-195 -6 0 971 c0 1074
-5 1004 60 886z m-713 -277 c-1 -156 -4 -298 -5 -315 -2 -33 -3 -32 -136 99
-125 122 -133 132 -121 152 17 28 219 306 238 329 8 9 18 17 21 17 3 0 5 -127
3 -282z m-2923 55 c18 -21 56 -63 85 -93 85 -92 138 -152 201 -225 33 -39 73
-83 90 -100 35 -34 51 -65 32 -65 -17 1 -50 29 -92 80 -21 25 -79 90 -130 145
-186 202 -254 279 -249 287 10 17 31 7 63 -29z m5611 -98 c0 -10 -85 -140
-165 -255 -45 -63 -98 -140 -117 -170 -20 -30 -102 -152 -182 -270 -80 -118
-150 -222 -156 -230 -5 -8 -47 -68 -92 -132 -72 -102 -83 -114 -86 -92 -4 26
17 59 218 352 47 68 92 134 100 147 34 55 136 200 143 203 4 2 7 10 7 17 0 7
3 15 8 17 7 3 111 157 167 247 15 25 31 49 36 55 5 6 28 35 51 64 35 44 68 67
68 47z m-6645 -370 c108 -52 217 -105 243 -116 26 -12 103 -49 172 -82 183
-87 334 -159 425 -202 44 -21 127 -60 185 -88 58 -27 155 -73 215 -102 158
-75 256 -123 290 -143 17 -10 64 -33 105 -52 41 -18 152 -70 245 -115 94 -45
193 -92 220 -105 28 -12 91 -43 140 -68 159 -80 180 -90 183 -87 4 4 -21 35
-93 115 -33 36 -132 146 -221 245 -89 99 -174 194 -190 211 -16 17 -63 69
-104 115 -41 46 -98 109 -126 139 -118 126 -129 141 -113 150 16 10 37 -11
249 -245 74 -83 153 -170 176 -195 23 -25 59 -65 79 -90 20 -25 67 -76 103
-115 37 -38 87 -93 112 -121 25 -27 77 -85 115 -129 39 -43 80 -89 91 -103 15
-17 26 -22 37 -16 9 5 64 77 124 159 60 83 145 198 189 257 43 58 111 149 149
203 39 53 78 106 87 118 10 12 74 99 142 192 69 94 129 175 134 180 4 6 34 45
65 88 31 42 62 77 67 77 5 0 111 -100 235 -222 l224 -223 2 -410 1 -410 -99
-6 c-54 -4 -231 -11 -393 -18 -162 -6 -367 -15 -455 -21 -88 -5 -223 -10 -300
-10 -103 0 -165 -6 -235 -21 -52 -11 -113 -24 -135 -28 -22 -5 -76 -16 -120
-26 -44 -9 -98 -21 -120 -25 -22 -4 -76 -15 -120 -25 -44 -9 -98 -20 -120 -25
-84 -16 -254 -53 -350 -75 -55 -13 -136 -31 -180 -40 -44 -9 -98 -20 -120 -25
-22 -5 -76 -16 -120 -25 -44 -9 -98 -20 -120 -25 -22 -5 -53 -11 -70 -14 -16
-3 -61 -13 -100 -22 -38 -8 -90 -20 -115 -24 -25 -5 -76 -16 -115 -25 -38 -8
-93 -19 -122 -24 -28 -6 -69 -15 -91 -22 -22 -6 -47 -9 -55 -6 -8 3 -42 61
-75 129 -61 125 -84 176 -136 303 -10 22 -21 48 -26 57 -6 10 -10 25 -10 33 0
8 -4 23 -9 33 -22 39 -38 82 -65 167 -16 50 -32 99 -36 110 -5 11 -16 47 -25
80 -10 33 -23 78 -30 100 -37 114 -88 333 -115 490 -25 147 -48 319 -43 331 6
16 14 12 268 -111z m5431 -777 c3 -12 22 -45 40 -74 19 -29 42 -74 53 -101 18
-46 19 -92 17 -1248 l-1 -1200 -70 0 c-66 0 -70 1 -69 23 0 12 1 467 2 1010
l2 989 51 76 c28 41 48 80 45 86 -4 6 -21 2 -46 -11 -22 -12 -43 -19 -46 -15
-14 13 7 38 51 59 25 12 45 25 45 29 0 10 -49 21 -61 14 -5 -4 -17 -4 -27 -1
-17 6 -18 30 -12 374 0 20 18 14 26 -10z m-236 -562 c0 -7 -6 -19 -14 -25 -27
-22 -550 -282 -562 -279 -30 7 21 40 196 131 102 52 223 116 270 141 91 48
110 54 110 32z m4391 -34 c-5 -9 -40 -33 -78 -52 -37 -19 -69 -38 -71 -42 -2
-5 -11 -8 -21 -8 -9 0 -21 -4 -26 -9 -6 -5 -62 -34 -125 -66 -63 -31 -124 -61
-135 -67 -11 -7 -256 -131 -545 -276 -289 -146 -609 -308 -713 -361 -459 -235
-554 -283 -592 -298 -33 -13 -571 -273 -628 -304 -10 -6 -114 -58 -230 -116
-117 -58 -228 -114 -247 -124 -211 -113 -310 -151 -310 -119 0 6 150 82 735
373 61 30 207 103 325 163 118 60 233 115 255 122 43 15 472 227 492 243 10 9
541 278 1118 566 295 147 349 175 600 303 105 54 193 96 198 93 4 -2 3 -12 -2
-21z m-4391 -1187 l0 -845 -279 0 c-154 0 -285 2 -293 5 -11 4 -13 81 -11 413
l2 408 213 320 c117 175 215 323 218 329 10 20 142 215 146 215 2 0 4 -380 4
-845z m-787 829 c14 -14 -16 -45 -67 -69 -54 -26 -76 -31 -76 -17 0 16 17 30
70 60 59 34 63 35 73 26z m-450 -253 c-3 -11 -12 -22 -21 -25 -10 -3 -24 -9
-32 -14 -70 -41 -1016 -515 -1060 -531 -46 -17 -186 -87 -645 -322 -143 -73
-300 -152 -350 -176 -49 -25 -131 -65 -182 -90 -50 -25 -94 -52 -97 -59 -5
-12 113 -14 767 -15 819 0 1589 -7 1595 -14 2 -2 -13 -11 -34 -20 -33 -14 -69
-15 -239 -11 -110 3 -639 8 -1175 12 -854 6 -977 8 -993 22 -16 14 -16 16 0
27 25 17 223 120 428 222 93 46 179 89 190 96 11 6 148 76 305 155 157 79 290
147 295 151 6 4 34 15 62 25 29 10 105 45 170 78 493 253 785 401 825 418 13
5 55 27 93 49 79 45 106 51 98 22z m449 -1158 c-1 -189 -4 -248 -14 -255 -7
-4 -38 -7 -68 -6 l-55 3 -2 150 c-1 118 2 156 14 180 30 56 116 185 121 180 3
-3 5 -116 4 -252z"/>
<path d="M8465 11620 c3 -5 18 -10 33 -10 21 0 24 2 12 10 -20 13 -53 13 -45
0z"/>
<path d="M8555 11580 c22 -11 44 -20 50 -20 6 0 46 -18 89 -40 77 -40 96 -46
96 -32 0 4 -28 20 -63 36 -34 15 -84 39 -110 52 -27 13 -61 24 -75 24 -24 0
-23 -2 13 -20z"/>
<path d="M8810 11469 c0 -5 9 -9 20 -9 11 0 20 2 20 4 0 2 -9 6 -20 9 -11 3
-20 1 -20 -4z"/>
<path d="M8856 11453 c-9 -10 4 -23 24 -23 10 0 20 -5 22 -11 2 -6 13 -9 24
-7 15 2 11 8 -22 25 -23 12 -45 19 -48 16z"/>
<path d="M8955 11390 c3 -5 15 -10 26 -10 10 0 19 -3 19 -8 0 -4 17 -16 38
-27 20 -11 39 -22 42 -25 7 -7 42 -29 60 -37 32 -14 143 -85 163 -103 11 -11
24 -20 28 -20 4 0 14 -6 21 -13 7 -6 30 -21 51 -32 20 -11 37 -23 37 -27 0 -5
5 -8 11 -8 10 0 69 -41 97 -67 7 -7 17 -13 20 -13 4 0 18 -10 32 -23 14 -13
39 -32 55 -43 35 -22 61 -42 87 -66 10 -10 21 -18 26 -18 4 0 21 -12 37 -27
116 -104 201 -177 247 -213 38 -29 313 -307 373 -375 33 -39 69 -77 81 -87 11
-9 49 -55 85 -103 78 -105 142 -188 149 -195 15 -14 78 -89 95 -114 11 -15 28
-37 38 -48 9 -12 17 -25 17 -29 0 -4 22 -34 50 -66 27 -32 50 -64 50 -70 0 -7
5 -13 10 -13 6 0 10 -4 10 -9 0 -10 94 -175 124 -216 29 -41 45 -67 52 -87 3
-10 10 -18 15 -18 5 0 9 -6 9 -14 0 -7 7 -19 15 -26 8 -7 15 -21 15 -30 0 -10
4 -20 9 -22 7 -2 70 -129 101 -203 4 -11 27 -59 49 -106 23 -47 41 -88 41 -92
0 -8 45 -110 66 -149 8 -14 14 -33 14 -42 0 -9 4 -24 9 -34 5 -9 17 -39 26
-67 19 -56 41 -111 55 -137 6 -10 10 -25 10 -34 0 -9 11 -51 24 -93 13 -42 30
-96 36 -121 7 -25 18 -65 26 -90 7 -25 20 -69 28 -99 9 -29 16 -63 16 -75 1
-17 2 -18 9 -6 9 15 3 62 -18 145 -21 88 -33 131 -40 150 -5 11 -16 47 -26 80
-9 33 -20 67 -25 75 -4 9 -11 30 -14 48 -4 17 -12 34 -17 37 -5 4 -9 19 -9 35
0 16 -4 32 -10 35 -5 3 -10 14 -10 23 0 9 -7 30 -15 46 -8 15 -15 34 -15 41 0
8 -6 26 -14 42 -8 15 -22 46 -32 68 -9 22 -25 58 -35 79 -11 22 -19 43 -19 48
0 4 -11 31 -24 60 -13 29 -39 86 -57 126 -18 39 -36 72 -41 72 -4 0 -8 9 -8
19 0 11 -3 21 -7 23 -5 2 -23 35 -41 73 -19 39 -40 81 -48 95 -8 14 -31 59
-52 100 -20 41 -40 77 -44 78 -5 2 -8 10 -8 18 0 8 -4 14 -10 14 -5 0 -12 11
-16 25 -3 14 -9 25 -13 25 -3 0 -21 23 -40 50 -19 28 -38 50 -43 50 -4 0 -8 8
-8 19 0 10 -7 24 -15 31 -8 7 -15 16 -15 21 0 9 -47 80 -58 89 -4 3 -23 25
-43 50 -20 25 -46 56 -58 69 -11 13 -21 28 -21 34 0 18 -87 130 -160 206 -14
14 -41 46 -60 71 -19 25 -55 68 -81 95 -25 28 -70 77 -100 109 -74 81 -136
143 -216 212 -37 33 -98 91 -137 130 -39 39 -100 92 -136 120 -36 27 -72 54
-80 61 -8 6 -49 39 -91 72 -43 34 -80 61 -84 61 -5 0 -27 16 -51 35 -23 19
-47 35 -53 35 -6 0 -11 4 -11 9 0 5 -8 12 -17 15 -10 3 -29 16 -43 28 -14 13
-56 43 -95 68 -38 25 -76 50 -83 57 -7 7 -17 13 -21 13 -4 0 -16 8 -27 18 -21
17 -50 35 -139 81 -27 14 -52 28 -55 31 -3 3 -20 13 -38 23 -37 19 -67 23 -57
7z"/>
<path d="M5827 11360 c-9 -11 -17 -35 -17 -53 0 -64 69 -98 125 -61 20 13 25
25 25 59 0 56 -19 75 -73 75 -30 0 -48 -6 -60 -20z m73 -35 c0 -13 -4 -14 -20
-5 -11 6 -20 13 -20 15 0 3 9 5 20 5 11 0 20 -7 20 -15z"/>
<path d="M7774 11170 c-33 -13 -64 -64 -64 -103 0 -41 50 -97 87 -97 34 0 77
25 97 54 26 41 20 80 -18 120 -34 37 -60 43 -102 26z m61 -46 c18 -12 25 -25
25 -50 0 -62 -78 -73 -99 -13 -9 27 -8 33 16 55 31 29 27 28 58 8z"/>
<path d="M5071 11146 c-47 -50 -34 -127 26 -157 40 -20 74 -14 108 17 36 34
36 105 -1 139 -37 34 -101 35 -133 1z m119 -63 c0 -49 -62 -70 -95 -33 -16 17
-17 23 -5 45 15 28 35 35 73 22 20 -7 27 -16 27 -34z"/>
<path d="M6308 11052 c-12 -13 -14 -22 -7 -35 14 -23 56 -22 69 3 7 14 7 20 0
20 -5 0 -10 7 -10 15 0 20 -31 18 -52 -3z m39 -18 c-3 -3 -12 -4 -19 -1 -8 3
-5 6 6 6 11 1 17 -2 13 -5z"/>
<path d="M4629 10602 c-56 -21 -78 -37 -111 -82 -40 -55 -55 -128 -38 -192 21
-85 49 -121 125 -163 90 -50 193 -37 268 34 51 48 77 109 77 180 0 168 -163
282 -321 223z m140 -38 c48 -19 60 -44 32 -63 -30 -20 -26 -38 11 -46 25 -6
35 -3 45 11 12 16 15 17 23 4 5 -8 10 -21 10 -27 0 -7 5 -13 10 -13 17 0 11
-84 -9 -125 l-18 -38 -18 26 c-9 15 -26 27 -36 27 -12 0 -19 7 -19 19 0 10 -9
30 -20 44 -22 27 -26 42 -10 32 6 -3 10 -1 10 4 0 6 -3 11 -7 12 -52 4 -80 12
-96 27 -11 9 -22 13 -24 7 -21 -58 -43 -38 -36 33 5 48 9 54 37 67 42 18 68
18 115 -1z m-183 -137 c13 -10 24 -25 24 -33 0 -8 7 -17 15 -20 20 -8 19 -33
-1 -41 -15 -5 -15 -7 0 -15 9 -5 16 -15 16 -23 0 -14 46 -33 55 -23 2 2 -6 15
-19 29 -19 20 -20 27 -10 37 16 14 68 16 59 2 -3 -5 -2 -10 4 -10 6 0 8 -6 5
-14 -3 -8 -1 -17 5 -21 20 -12 12 -30 -19 -43 -16 -8 -30 -20 -30 -28 0 -19
19 -18 26 1 8 21 36 19 56 -4 15 -18 14 -19 -20 -25 -96 -16 -140 -1 -196 67
-33 40 -36 50 -36 106 0 44 5 69 18 86 14 19 18 20 21 7 2 -9 14 -24 27 -35z
m82 -29 c-5 -32 -28 -35 -28 -4 0 17 5 26 16 26 10 0 14 -7 12 -22z m169 -124
c-3 -3 -12 -4 -19 -1 -8 3 -5 6 6 6 11 1 17 -2 13 -5z m-7 -48 c0 -9 -30 -14
-35 -6 -4 6 3 10 14 10 12 0 21 -2 21 -4z"/>
<path d="M4575 10311 c-8 -14 32 -71 51 -71 20 0 17 11 -15 48 -18 21 -31 29
-36 23z"/>
<path d="M4650 10230 c0 -5 5 -10 11 -10 5 0 7 5 4 10 -3 6 -8 10 -11 10 -2 0
-4 -4 -4 -10z"/>
<path d="M8130 10601 c-121 -50 -174 -200 -114 -326 59 -125 192 -177 309
-120 67 32 90 54 120 113 47 94 27 225 -45 286 -81 68 -177 84 -270 47z m155
-31 c3 -5 13 -10 21 -10 16 0 64 -47 64 -63 0 -5 -11 -6 -25 -3 -21 5 -25 3
-25 -16 0 -28 -71 -73 -112 -71 -33 2 -47 -13 -50 -56 -2 -24 -10 -37 -36 -53
-26 -16 -30 -23 -21 -34 21 -26 0 -27 -22 -2 -29 33 -51 106 -38 129 5 10 9
29 9 44 0 22 3 25 25 19 23 -6 25 -3 25 25 0 31 15 43 23 19 2 -7 2 -1 0 13
-2 14 2 30 9 36 35 28 140 44 153 23z m121 -127 c-10 -10 -19 5 -10 18 6 11 8
11 12 0 2 -7 1 -15 -2 -18z m17 -54 c9 -33 -15 -119 -33 -119 -23 1 -53 27
-47 42 2 7 1 20 -4 29 -6 12 -3 18 11 22 12 3 20 14 20 26 0 29 45 29 53 0z
m-188 -58 c-3 -5 4 -12 15 -16 29 -9 25 -20 -15 -32 -42 -13 -52 2 -22 35 21
22 33 29 22 13z m75 -51 c0 -5 -5 -10 -11 -10 -5 0 -7 5 -4 10 3 6 8 10 11 10
2 0 4 -4 4 -10z m-32 -29 c2 -6 12 -11 23 -11 10 0 19 -2 19 -4 0 -2 3 -11 6
-20 4 -10 1 -16 -7 -16 -8 0 -27 -7 -43 -15 -36 -19 -43 -13 -22 20 16 24 15
25 -3 25 -10 0 -21 8 -23 18 -4 15 0 18 21 16 14 -1 27 -8 29 -13z m82 -16 c0
-8 -4 -15 -10 -15 -5 0 -7 7 -4 15 4 8 8 15 10 15 2 0 4 -7 4 -15z m-163 -31
c-3 -3 -12 -4 -19 -1 -8 3 -5 6 6 6 11 1 17 -2 13 -5z"/>
<path d="M8370 10300 c0 -5 5 -10 10 -10 6 0 10 5 10 10 0 6 -4 10 -10 10 -5
0 -10 -4 -10 -10z"/>
<path d="M6591 10359 c-22 -65 39 -121 93 -86 34 23 42 58 21 91 -14 21 -25
26 -60 26 -39 0 -44 -3 -54 -31z m63 -24 c-4 -8 -10 -15 -15 -15 -5 0 -9 7 -9
15 0 8 7 15 15 15 9 0 12 -6 9 -15z"/>
<path d="M2121 10101 c-24 -15 6 -23 82 -19 66 3 72 1 74 -17 2 -11 -11 -35
-28 -54 l-31 -33 -91 1 c-94 1 -113 -3 -119 -28 -2 -12 11 -14 71 -12 41 1 78
4 83 7 13 8 10 -3 -12 -47 -40 -77 -43 -79 -153 -79 -54 0 -96 -4 -93 -9 3 -4
36 -6 73 -4 89 5 101 -3 74 -52 -28 -53 -19 -56 24 -9 48 53 275 347 275 357
0 10 -212 9 -229 -2z"/>
<path d="M3505 9910 c-43 -13 -95 -71 -105 -116 -20 -88 32 -176 119 -202 52
-16 64 -15 117 9 118 56 132 212 26 287 -32 23 -115 34 -157 22z m118 -54 c9
-7 17 -18 17 -25 0 -6 7 -11 15 -11 8 0 15 -9 15 -20 0 -11 5 -20 10 -20 6 0
10 -10 10 -23 0 -31 -22 -77 -37 -77 -7 0 -13 -4 -13 -10 0 -5 -7 -10 -15 -10
-18 0 -19 12 -3 28 8 8 3 15 -20 29 -18 10 -32 24 -32 31 0 17 -39 15 -46 -3
-4 -10 -13 -13 -24 -10 -13 4 -19 -1 -24 -21 l-7 -27 -18 29 c-17 28 -17 31 0
68 27 61 57 85 109 85 25 0 53 -6 63 -13z m-43 -196 c10 -18 8 -20 -20 -20
-32 0 -38 8 -18 28 17 17 26 15 38 -8z"/>
<path d="M3595 9770 c-3 -5 3 -10 15 -10 12 0 18 5 15 10 -3 6 -10 10 -15 10
-5 0 -12 -4 -15 -10z"/>
<path d="M9315 9913 c-33 -5 -75 -47 -100 -99 -34 -71 22 -194 101 -222 36
-13 47 -13 89 -1 78 23 135 91 135 160 0 41 -44 121 -78 141 -30 18 -102 28
-147 21z m128 -68 c25 -26 42 -101 24 -112 -5 -3 -7 -14 -4 -24 3 -11 1 -19
-4 -19 -5 0 -9 -6 -9 -12 0 -19 -48 -38 -97 -38 -33 0 -48 6 -66 26 -46 49
-41 134 10 182 35 33 111 31 146 -3z"/>
<path d="M9390 9770 c0 -5 5 -10 11 -10 5 0 7 5 4 10 -3 6 -8 10 -11 10 -2 0
-4 -4 -4 -10z"/>
<path d="M5305 9903 c-79 -17 -135 -81 -135 -153 0 -23 5 -51 11 -63 19 -36
72 -87 90 -87 10 0 21 -4 24 -10 10 -17 63 -11 111 11 173 82 85 343 -101 302z
m53 -54 c-11 -17 -10 -22 6 -34 17 -13 21 -12 32 3 10 13 15 14 25 5 10 -10 9
-14 -4 -19 -22 -8 -22 -36 1 -33 42 4 52 -1 52 -26 0 -27 -46 -78 -64 -72 -6
2 -13 14 -16 28 -7 29 -37 37 -54 13 -7 -9 -18 -14 -25 -10 -8 5 -5 13 10 25
l22 18 -39 26 c-21 15 -44 27 -51 27 -33 0 1 47 42 59 17 5 40 10 53 10 20 1
21 -1 10 -20z m-108 -74 c0 -8 -4 -15 -10 -15 -5 0 -10 7 -10 15 0 8 5 15 10
15 6 0 10 -7 10 -15z"/>
<path d="M5330 9794 c0 -11 34 -33 50 -33 8 0 5 4 -7 9 -13 5 -23 14 -23 20 0
5 -4 10 -10 10 -5 0 -10 -3 -10 -6z"/>
<path d="M7518 9892 c-27 -17 -52 -48 -75 -89 -36 -63 16 -175 96 -209 82 -34
178 0 219 78 38 74 18 148 -56 205 -38 28 -51 33 -100 33 -38 0 -66 -6 -84
-18z m165 -56 c29 -29 35 -42 35 -80 1 -28 -3 -44 -9 -41 -5 4 -7 10 -4 15 3
5 1 11 -5 15 -5 3 -10 -1 -10 -9 0 -12 -7 -14 -27 -10 -33 6 -62 -28 -44 -50
16 -19 3 -26 -26 -15 -32 12 -33 12 -33 -6 0 -21 -11 -19 -40 8 -28 25 -53 84
-39 93 5 3 9 15 9 26 0 27 37 68 62 68 10 0 18 5 18 10 0 6 18 10 40 10 31 0
46 -7 73 -34z"/>
<path d="M7665 9771 c-3 -5 -1 -12 5 -16 5 -3 10 1 10 9 0 18 -6 21 -15 7z"/>
<path d="M4696 9824 c-9 -34 4 -47 38 -38 21 5 26 12 26 35 0 25 -4 29 -29 29
-23 0 -30 -5 -35 -26z m44 -5 c0 -5 -4 -9 -10 -9 -5 0 -10 7 -10 16 0 8 5 12
10 9 6 -3 10 -10 10 -16z"/>
<path d="M8220 9820 c0 -5 5 -10 10 -10 6 0 10 5 10 10 0 6 -4 10 -10 10 -5 0
-10 -4 -10 -10z"/>
<path d="M8178 9793 c7 -3 16 -2 19 1 4 3 -2 6 -13 5 -11 0 -14 -3 -6 -6z"/>
<path d="M2000 9695 c-11 -13 -29 -14 -100 -9 -59 5 -93 3 -109 -5 -41 -22
-12 -33 78 -30 81 4 86 3 83 -16 -2 -11 -16 -38 -32 -60 l-28 -40 -108 -5
c-132 -6 -145 -24 -21 -28 48 -1 87 -7 87 -12 0 -12 -22 -62 -35 -78 -32 -41
-36 -42 -136 -42 -59 0 -99 -4 -99 -10 0 -6 33 -10 78 -10 100 0 108 -6 87
-56 -29 -70 -37 -74 -146 -74 -54 0 -101 -4 -104 -10 -9 -14 32 -21 95 -17 91
6 93 2 55 -80 l-26 -53 -103 0 c-82 0 -105 -3 -109 -15 -9 -23 10 -28 77 -21
67 8 96 2 96 -20 0 -19 -40 -97 -54 -106 -6 -4 -55 -8 -108 -8 -122 0 -130
-18 -10 -22 83 -3 87 -4 90 -27 2 -13 -1 -28 -7 -34 -6 -6 -11 -18 -11 -28 0
-9 -11 -28 -25 -43 -20 -22 -25 -36 -24 -74 1 -29 4 -37 6 -19 2 15 8 27 13
27 4 0 11 11 14 25 4 14 11 25 16 25 6 0 10 6 10 14 0 8 11 36 24 63 13 26 54
111 92 188 37 77 71 142 74 145 3 3 18 30 34 60 39 74 188 314 198 318 4 2 8
9 8 17 0 7 7 18 15 25 8 7 15 19 15 27 0 7 10 25 23 39 34 36 59 82 48 88 -5
3 -14 -1 -21 -9z"/>
<path d="M6301 9619 c-42 -42 -44 -103 -3 -141 71 -67 172 -27 172 70 0 36 -5
49 -31 73 -44 41 -96 40 -138 -2z"/>
<path d="M5380 9128 c-30 -32 -34 -62 -14 -93 35 -54 98 -55 136 -3 19 28 20
34 8 67 -16 44 -25 51 -72 51 -26 0 -44 -7 -58 -22z m94 -42 c14 -57 -25 -74
-54 -23 -13 24 -13 29 0 37 26 17 48 11 54 -14z"/>
<path d="M5430 9090 c0 -5 5 -10 11 -10 5 0 7 5 4 10 -3 6 -8 10 -11 10 -2 0
-4 -4 -4 -10z"/>
<path d="M7447 9132 c-24 -27 -22 -94 3 -117 25 -23 86 -22 111 1 26 23 25 84
-1 112 -26 28 -90 30 -113 4z m89 -39 c19 -25 17 -36 -7 -51 -33 -21 -59 -6
-59 34 0 30 3 34 26 34 15 0 33 -8 40 -17z"/>
<path d="M10345 8982 c-109 -46 -166 -98 -210 -189 -38 -77 -38 -185 -1 -267
34 -75 92 -136 163 -172 53 -26 67 -29 158 -29 100 0 100 0 160 40 111 74 165
175 165 306 0 63 -5 84 -33 139 -73 147 -266 230 -402 172z m213 -73 c26 -12
46 -29 52 -44 5 -14 17 -25 26 -25 9 0 18 -9 21 -20 5 -17 8 -18 21 -8 13 11
14 9 8 -15 -6 -25 -4 -28 12 -23 17 6 19 0 21 -46 1 -28 6 -57 11 -63 5 -6 5
-16 0 -25 -6 -8 -10 -30 -10 -48 0 -60 -89 -172 -137 -172 -25 0 -31 17 -9 26
20 8 29 34 11 34 -8 0 -15 -6 -15 -14 0 -12 -38 -34 -48 -27 -1 1 -16 -6 -32
-16 -25 -14 -35 -15 -63 -5 -52 19 -65 15 -39 -10 15 -16 34 -23 62 -23 22 0
40 -3 40 -7 0 -5 -22 -8 -50 -8 -27 0 -50 5 -50 10 0 6 -12 10 -27 10 -63 0
-183 115 -183 176 0 26 1 27 14 8 26 -35 26 -8 1 41 -14 26 -23 50 -20 53 3 4
9 2 13 -3 4 -6 18 -19 31 -30 l24 -20 -7 48 c-6 38 -4 48 9 53 23 9 0 33 -25
27 -17 -5 -19 -1 -16 36 2 22 10 49 17 58 29 37 70 73 82 73 7 0 17 4 23 9 26
26 166 20 232 -10z"/>
<path d="M10300 8800 c0 -5 5 -10 10 -10 6 0 10 5 10 10 0 6 -4 10 -10 10 -5
0 -10 -4 -10 -10z"/>
<path d="M10330 8744 c0 -8 5 -12 10 -9 6 3 10 10 10 16 0 5 -4 9 -10 9 -5 0
-10 -7 -10 -16z"/>
<path d="M10580 8700 c0 -5 5 -10 10 -10 6 0 10 5 10 10 0 6 -4 10 -10 10 -5
0 -10 -4 -10 -10z"/>
<path d="M10650 8650 c0 -5 5 -10 10 -10 6 0 10 5 10 10 0 6 -4 10 -10 10 -5
0 -10 -4 -10 -10z"/>
<path d="M10250 8592 c0 -13 11 -26 32 -36 17 -9 33 -14 35 -12 7 6 -9 36 -20
36 -6 0 -19 7 -29 17 -17 15 -18 15 -18 -5z"/>
<path d="M10580 8541 c0 -5 5 -13 10 -16 6 -3 10 -2 10 4 0 5 -4 13 -10 16 -5
3 -10 2 -10 -4z"/>
<path d="M10280 8500 c0 -5 5 -10 10 -10 6 0 10 -7 10 -15 0 -16 15 -20 24 -7
3 5 -4 16 -15 25 -22 20 -29 21 -29 7z"/>
<path d="M10439 8449 c-10 -6 -7 -9 14 -9 29 0 35 5 14 13 -8 3 -20 1 -28 -4z"/>
<path d="M10338 8423 c7 -3 16 -2 19 1 4 3 -2 6 -13 5 -11 0 -14 -3 -6 -6z"/>
<path d="M2437 8970 c-52 -20 -125 -75 -155 -118 -39 -54 -52 -102 -52 -191 0
-77 3 -93 31 -146 39 -77 89 -128 156 -161 50 -24 62 -26 151 -22 78 4 105 9
141 29 55 31 121 96 145 146 10 21 22 46 27 55 5 10 9 54 9 98 0 66 -5 91 -25
134 -33 69 -95 130 -171 167 -52 24 -73 29 -135 28 -45 -1 -93 -8 -122 -19z
m238 -50 c3 -5 15 -10 26 -10 10 0 19 -7 19 -15 0 -8 7 -15 15 -15 8 0 15 -4
15 -10 0 -5 7 -10 15 -10 21 0 19 -8 -10 -46 -16 -21 -21 -35 -14 -39 6 -4 7
-19 4 -36 -5 -22 -3 -29 9 -29 25 0 19 -40 -10 -67 -16 -15 -24 -31 -21 -46 3
-21 4 -21 15 5 6 15 20 32 32 38 11 6 20 16 19 23 -7 57 12 61 36 8 13 -30 16
-52 11 -85 -4 -25 -11 -46 -16 -46 -5 0 -11 -9 -15 -20 -7 -22 -72 -94 -95
-103 -8 -4 -22 -11 -30 -15 -47 -27 -65 -32 -118 -32 -53 0 -60 2 -70 25 -10
21 -18 25 -57 25 -25 0 -45 4 -45 8 0 5 -10 14 -22 21 -28 15 -78 83 -78 105
0 9 -4 16 -10 16 -6 0 -10 28 -10 65 0 62 1 65 24 65 32 0 37 19 15 51 -18 26
-18 27 2 45 12 11 25 29 30 41 5 15 14 21 24 17 11 -5 14 -2 9 10 -3 9 -1 16
5 16 6 0 11 7 11 15 0 9 9 15 24 15 14 0 28 5 31 10 4 6 53 10 115 10 62 0
111 -4 115 -10z m122 -130 c-11 -19 -37 -28 -37 -13 0 11 35 41 42 36 4 -2 2
-13 -5 -23z m13 -40 c0 -5 -2 -10 -4 -10 -3 0 -8 5 -11 10 -3 6 -1 10 4 10 6
0 11 -4 11 -10z m-500 -24 c0 -3 -4 -8 -10 -11 -5 -3 -10 -1 -10 4 0 6 5 11
10 11 6 0 10 -2 10 -4z"/>
<path d="M2365 8727 c-4 -10 -5 -21 -1 -24 10 -10 18 4 13 24 -4 17 -4 17 -12
0z"/>
<path d="M2335 8680 c-3 -5 1 -10 10 -10 9 0 13 5 10 10 -3 6 -8 10 -10 10 -2
0 -7 -4 -10 -10z"/>
<path d="M2695 8680 c-3 -5 -1 -10 4 -10 6 0 11 5 11 10 0 6 -2 10 -4 10 -3 0
-8 -4 -11 -10z"/>
<path d="M2370 8574 c0 -8 6 -11 15 -8 8 4 15 9 15 13 0 4 -7 8 -15 8 -8 0
-15 -6 -15 -13z"/>
<path d="M2637 8536 c-3 -8 -2 -18 3 -21 13 -8 24 15 12 27 -6 6 -11 4 -15 -6z"/>
<path d="M2412 8449 c2 -6 8 -10 13 -10 5 0 11 4 13 10 2 6 -4 11 -13 11 -9 0
-15 -5 -13 -11z"/>
<path d="M2457 8454 c-8 -8 1 -24 14 -24 5 0 9 7 9 15 0 15 -12 20 -23 9z"/>
<path d="M2560 8450 c0 -5 11 -10 25 -10 14 0 25 5 25 10 0 6 -11 10 -25 10
-14 0 -25 -4 -25 -10z"/>
<path d="M2680 8450 c0 -5 7 -10 15 -10 8 0 15 5 15 10 0 6 -7 10 -15 10 -8 0
-15 -4 -15 -10z"/>
<path d="M2648 8423 c7 -3 16 -2 19 1 4 3 -2 6 -13 5 -11 0 -14 -3 -6 -6z"/>
<path d="M2578 8393 c7 -3 16 -2 19 1 4 3 -2 6 -13 5 -11 0 -14 -3 -6 -6z"/>
<path d="M4805 8849 c-37 -11 -54 -24 -88 -70 -23 -30 -27 -46 -27 -98 0 -125
70 -181 216 -173 49 3 108 61 128 126 17 53 17 56 -4 103 -46 103 -125 143
-225 112z m155 -80 c0 -6 7 -17 15 -25 10 -10 15 -35 15 -69 0 -49 -3 -55 -40
-89 -44 -39 -92 -47 -142 -24 -22 11 -25 17 -21 49 4 30 1 39 -18 53 -13 9
-18 16 -12 16 7 0 26 14 43 30 35 34 43 36 60 15 10 -12 16 -13 24 -5 8 8 7
13 -4 20 -8 5 -11 12 -7 17 5 4 12 1 17 -6 11 -19 41 -6 34 14 -4 10 0 15 15
15 12 0 21 -5 21 -11z"/>
<path d="M4820 8706 c0 -9 7 -16 16 -16 17 0 14 22 -4 28 -7 2 -12 -3 -12 -12z"/>
<path d="M4790 8675 c0 -9 5 -15 11 -13 6 2 11 8 11 13 0 5 -5 11 -11 13 -6 2
-11 -4 -11 -13z"/>
<path d="M4865 8650 c3 -5 10 -10 16 -10 5 0 9 5 9 10 0 6 -7 10 -16 10 -8 0
-12 -4 -9 -10z"/>
<path d="M8079 8850 c-78 -23 -119 -85 -119 -177 1 -46 6 -66 28 -97 52 -75
145 -98 236 -57 36 15 48 29 72 76 26 55 27 60 16 114 -15 70 -36 100 -92 129
-45 22 -94 27 -141 12z m84 -57 c10 4 12 -3 9 -27 -5 -31 -4 -31 16 -13 19 18
22 18 46 2 23 -15 26 -24 26 -78 0 -45 -4 -63 -17 -73 -25 -19 -33 -17 -34 9
0 21 -1 21 -8 2 -5 -11 -4 -25 1 -32 8 -10 1 -13 -31 -13 l-41 0 26 41 c24 38
25 43 9 58 -15 15 -16 15 -9 -1 3 -11 1 -18 -5 -18 -6 0 -11 5 -11 10 0 6 -6
10 -14 10 -21 0 -7 40 17 49 14 5 17 10 9 15 -7 4 -12 18 -12 32 0 15 -6 24
-16 24 -8 0 -12 5 -9 10 5 8 11 7 21 -1 7 -6 20 -9 27 -6z"/>
<path d="M6287 8712 c-26 -29 -22 -77 9 -101 34 -26 54 -26 82 -1 45 42 15
120 -46 120 -16 0 -36 -8 -45 -18z m73 -52 c0 -24 -28 -33 -46 -16 -12 13 -12
17 1 30 19 19 45 10 45 -14z"/>
<path d="M1401 8583 c-1 -27 -3 -27 -128 -23 -63 1 -93 -1 -93 -9 0 -7 32 -11
95 -11 95 0 95 0 95 -25 0 -14 5 -25 10 -25 6 0 10 10 10 23 0 13 5 28 11 34
6 6 9 21 6 34 -4 24 -4 24 -6 2z"/>
<path d="M1350 8460 c0 -12 -11 -33 -25 -48 -23 -24 -32 -27 -98 -28 -111 -1
-121 -7 -22 -13 90 -6 90 -6 93 -34 2 -16 -4 -39 -12 -52 -9 -13 -16 -32 -16
-41 0 -9 -9 -18 -21 -21 -16 -5 -19 -11 -14 -33 7 -32 -12 -120 -29 -135 -6
-5 -11 -31 -11 -56 0 -25 -5 -57 -12 -70 -6 -13 -14 -33 -17 -43 -6 -17 -14
-18 -79 -14 -39 3 -85 2 -102 -2 -54 -12 -1 -23 81 -17 73 7 74 6 80 -19 4
-15 -1 -45 -13 -77 l-20 -52 -97 -3 c-117 -3 -129 -22 -13 -22 45 0 88 -4 94
-8 10 -6 10 -22 2 -71 -14 -75 -24 -81 -140 -81 -51 0 -78 -4 -74 -10 3 -5 46
-10 94 -10 48 0 90 -2 93 -5 8 -8 -11 -127 -23 -142 -8 -9 -41 -14 -103 -15
l-91 -2 85 -3 c46 -2 90 -9 98 -15 10 -8 11 -26 6 -67 -11 -91 -11 -91 -115
-90 -49 1 -93 -1 -96 -5 -3 -3 38 -6 91 -6 l98 0 -4 -71 c-3 -56 -8 -74 -23
-85 -17 -13 -18 -16 -5 -24 8 -5 20 -26 26 -47 11 -36 12 -33 15 57 1 52 2
102 1 110 0 8 6 37 14 64 7 27 14 74 14 103 0 29 4 61 10 71 9 16 26 113 37
217 3 28 9 55 14 60 4 6 11 31 14 55 4 25 10 54 15 65 5 11 11 38 14 60 7 63
29 145 38 145 4 0 8 16 8 35 0 19 4 43 9 53 10 19 29 74 56 167 19 64 25 82
45 130 35 86 54 165 40 165 -5 0 -10 -9 -10 -20z"/>
<path d="M1168 8213 c12 -2 30 -2 40 0 9 3 -1 5 -23 4 -22 0 -30 -2 -17 -4z"/>
<path d="M1038 8043 c7 -3 16 -2 19 1 4 3 -2 6 -13 5 -11 0 -14 -3 -6 -6z"/>
<path d="M6579 7965 c-64 -35 -78 -112 -30 -164 38 -41 95 -43 140 -5 27 22
31 32 31 72 0 52 -19 81 -63 100 -35 15 -46 15 -78 -3z"/>
<path d="M4725 7845 c-111 -60 -138 -170 -65 -271 52 -71 186 -83 249 -22 84
82 81 176 -8 262 -35 34 -48 40 -93 43 -36 3 -63 -1 -83 -12z m113 -55 c58
-14 72 -35 72 -108 0 -61 -2 -67 -32 -94 -25 -22 -41 -28 -80 -28 -31 0 -55 6
-68 17 -26 23 -25 28 10 60 17 14 30 35 30 45 0 22 20 60 38 71 7 5 10 12 7
17 -8 13 -74 -32 -68 -46 8 -21 -18 -27 -32 -8 -15 20 -17 17 -20 -33 0 -18 3
-33 7 -33 4 0 8 -5 8 -11 0 -8 -4 -8 -14 0 -20 17 -26 71 -11 106 15 37 73 69
105 58 8 -3 30 -9 48 -13z"/>
<path d="M4720 7760 c0 -5 5 -10 10 -10 6 0 10 5 10 10 0 6 -4 10 -10 10 -5 0
-10 -4 -10 -10z"/>
<path d="M4790 7710 c0 -5 4 -10 9 -10 6 0 13 5 16 10 3 6 -1 10 -9 10 -9 0
-16 -4 -16 -10z"/>
<path d="M8163 7815 c-27 -23 -47 -51 -57 -82 -15 -43 -15 -51 1 -100 31 -98
103 -139 202 -117 63 15 103 49 120 103 16 55 14 89 -10 138 -30 62 -82 93
-157 93 -52 0 -63 -4 -99 -35z m145 -11 c18 -8 32 -19 32 -22 -1 -13 -93 -63
-109 -60 -25 5 -20 33 7 31 12 -2 22 1 22 6 0 13 -27 21 -45 15 -8 -4 -15 -1
-15 5 0 6 8 11 18 11 9 0 26 7 36 15 24 18 17 18 54 -1z m52 -64 c0 -5 -7 -10
-15 -10 -8 0 -15 5 -15 10 0 6 7 10 15 10 8 0 15 -4 15 -10z m-180 -54 c0 -37
16 -57 38 -48 11 4 9 -2 -6 -18 -36 -39 -56 -18 -60 60 -3 56 -1 62 12 50 9
-7 16 -27 16 -44z m140 30 c0 -3 -4 -8 -10 -11 -5 -3 -10 -1 -10 4 0 6 5 11
10 11 6 0 10 -2 10 -4z m-86 -37 c-3 -5 -10 -7 -15 -3 -5 3 -7 10 -3 15 3 5
10 7 15 3 5 -3 7 -10 3 -15z m56 7 c0 -8 -4 -18 -10 -21 -5 -3 -10 3 -10 14 0
12 5 21 10 21 6 0 10 -6 10 -14z m78 3 c-2 -6 -8 -10 -13 -10 -5 0 -11 4 -13
10 -2 6 4 11 13 11 9 0 15 -5 13 -11z m-59 -73 c0 -14 -2 -16 -6 -6 -3 8 -10
21 -16 28 -7 9 -6 11 7 6 9 -3 16 -16 15 -28z m-59 -30 c0 -11 -19 -15 -25 -6
-3 5 1 10 9 10 9 0 16 -2 16 -4z m60 -11 c10 -12 10 -15 -3 -15 -8 0 -20 7
-27 15 -10 12 -10 15 3 15 8 0 20 -7 27 -15z"/>
<path d="M2427 7732 c-59 -65 -26 -152 57 -152 13 0 35 12 50 26 36 37 36 94
0 123 -33 26 -85 27 -107 3z"/>
<path d="M10401 7724 c-44 -56 -8 -134 61 -134 39 0 51 7 67 37 30 57 -8 123
-72 123 -26 0 -41 -7 -56 -26z"/>
<path d="M11770 7682 c0 -22 7 -59 15 -82 8 -23 15 -58 15 -76 0 -19 3 -34 8
-34 4 0 8 -24 10 -52 2 -29 10 -84 18 -121 8 -38 14 -95 14 -127 0 -32 5 -62
10 -65 6 -3 10 -25 10 -49 0 -80 13 -195 21 -190 7 4 3 159 -6 224 -2 14 -11
79 -19 145 -16 124 -25 176 -52 305 -8 41 -18 92 -21 113 -7 51 -23 57 -23 9z"/>
<path d="M4137 7434 c-72 -39 -49 -144 32 -144 41 0 51 5 73 38 22 32 7 75
-37 102 -38 23 -33 23 -68 4z m71 -76 c3 -28 -7 -34 -48 -28 -23 3 -24 8 -12
36 17 35 56 30 60 -8z"/>
<path d="M8843 7425 c-33 -23 -45 -68 -25 -97 22 -32 32 -38 69 -38 47 0 61 8
73 45 24 74 -54 134 -117 90z"/>
<path d="M1932 7305 c-42 -23 -71 -54 -87 -91 -17 -41 -20 -110 -5 -119 6 -3
10 -14 10 -23 0 -24 47 -72 86 -88 89 -37 186 3 225 94 41 94 8 177 -88 226
-37 19 -108 19 -141 1z m135 -49 c2 -1 -4 -17 -13 -35 -13 -26 -19 -30 -30
-20 -18 15 -19 -5 0 -23 7 -8 17 -24 20 -36 8 -25 21 -29 30 -7 3 8 15 15 26
15 33 0 27 -63 -9 -102 -28 -30 -31 -31 -83 -22 -44 7 -54 13 -56 32 -4 24
-17 29 -28 11 -4 -8 -9 -7 -15 2 -6 9 -3 19 9 28 16 12 15 13 -5 8 -26 -6 -36
13 -24 46 4 12 6 28 4 35 -3 7 1 19 7 27 10 12 16 13 27 4 17 -15 31 -3 15 13
-18 18 -14 26 16 31 25 5 103 0 109 -7z m41 -48 c7 -7 12 -21 12 -31 0 -17 -2
-17 -20 6 -11 14 -20 28 -20 31 0 10 15 7 28 -6z"/>
<path d="M1930 7145 c0 -17 5 -25 13 -22 6 2 12 12 12 22 0 10 -6 20 -12 23
-8 2 -13 -6 -13 -23z"/>
<path d="M1987 7083 c-3 -5 -1 -17 4 -28 7 -17 8 -17 8 8 1 27 -4 34 -12 20z"/>
<path d="M10850 7296 c-51 -34 -68 -56 -79 -106 -14 -62 3 -123 45 -164 46
-45 143 -72 159 -46 3 6 13 10 22 10 50 0 113 89 113 160 0 63 -38 119 -107
158 -37 20 -113 14 -153 -12z m90 -42 c0 -8 -7 -14 -15 -14 -15 0 -21 21 -9
33 10 9 24 -2 24 -19z m48 -14 c-15 -23 -31 -21 -36 3 -3 12 4 17 22 17 24 0
25 -2 14 -20z m19 -46 c-9 -9 -28 6 -21 18 4 6 10 6 17 -1 6 -6 8 -13 4 -17z
m43 2 c0 -13 6 -26 13 -29 10 -3 10 -9 0 -26 -7 -11 -13 -28 -13 -36 0 -8 -16
-31 -36 -50 -41 -40 -68 -44 -131 -17 -33 13 -43 22 -43 40 0 26 14 28 54 7
20 -10 33 -12 41 -5 6 5 15 7 18 3 4 -3 7 2 7 12 0 15 3 16 12 7 17 -17 48
-15 48 3 0 8 -7 15 -15 15 -21 0 -19 15 7 61 25 45 38 50 38 15z m-213 -80
c-4 -9 -11 -16 -17 -16 -11 0 -14 33 -3 43 11 11 26 -10 20 -27z"/>
<path d="M5210 7280 c0 -5 9 -10 20 -10 11 0 20 5 20 10 0 6 -9 10 -20 10 -11
0 -20 -4 -20 -10z"/>
<path d="M820 6980 c0 -5 23 -10 51 -10 31 0 48 4 44 10 -3 6 -26 10 -51 10
-24 0 -44 -4 -44 -10z"/>
<path d="M935 6980 c-3 -5 1 -10 10 -10 9 0 13 5 10 10 -3 6 -8 10 -10 10 -2
0 -7 -4 -10 -10z"/>
<path d="M1000 6863 c0 -10 -7 -26 -14 -36 -12 -16 -23 -17 -74 -11 -37 4 -67
2 -78 -5 -15 -8 -1 -10 63 -11 54 0 84 -4 90 -12 10 -18 5 -118 -7 -133 -6 -7
-50 -17 -98 -21 l-87 -9 95 -5 95 -5 3 -66 c4 -89 -4 -95 -102 -94 -42 1 -79
-2 -82 -7 -3 -4 32 -8 78 -8 52 0 89 -5 96 -12 15 -15 16 -102 2 -129 -9 -16
-22 -19 -90 -19 -43 0 -82 -4 -85 -10 -6 -10 28 -13 135 -14 l45 -1 9 -48 c6
-30 6 -58 0 -75 -9 -26 -12 -27 -92 -27 -58 0 -82 -4 -82 -12 0 -8 27 -13 88
-15 l87 -3 9 -48 c14 -72 5 -81 -90 -87 -61 -4 -79 -8 -79 -20 0 -12 19 -16
90 -20 84 -5 90 -7 93 -27 2 -13 8 -23 14 -23 13 0 2 232 -13 271 -6 15 -9
169 -7 392 2 202 0 367 -4 367 -5 0 -8 -8 -8 -17z"/>
<path d="M11899 6843 c-2 -4 -2 -159 1 -343 3 -184 7 -297 9 -250 4 94 1 593
-4 598 -2 2 -5 0 -6 -5z"/>
<path d="M1813 6473 c-48 -27 -88 -66 -117 -111 -22 -35 -26 -53 -26 -111 0
-47 6 -80 18 -103 23 -44 110 -128 133 -128 10 0 21 -4 24 -10 10 -16 118 -12
160 5 82 35 155 146 155 237 0 78 -65 178 -141 217 -52 27 -160 29 -206 4z
m83 -63 c7 -7 21 -7 42 1 23 8 41 8 69 -2 45 -14 53 -22 77 -72 19 -41 16 -67
-9 -67 -12 0 -11 -4 6 -21 11 -11 18 -27 15 -36 -3 -8 -6 -24 -6 -35 0 -15 -4
-18 -17 -13 -14 5 -15 3 -7 -5 15 -15 6 -50 -12 -50 -8 0 -14 -5 -14 -12 0 -9
-3 -9 -11 -1 -13 13 -32 8 -71 -19 -37 -26 -94 -24 -101 3 -4 16 -10 19 -27
14 -25 -8 -70 12 -70 30 0 6 -5 16 -12 23 -7 7 -13 39 -15 71 -3 54 -2 60 19
67 l23 7 -23 8 c-27 10 -27 17 -2 48 17 19 23 21 35 11 10 -8 15 -9 15 -2 0 6
-4 14 -10 17 -18 11 -11 28 9 22 14 -3 18 -1 14 9 -4 10 5 14 34 14 21 0 44
-5 49 -10z"/>
<path d="M1908 6293 c7 -3 16 -2 19 1 4 3 -2 6 -13 5 -11 0 -14 -3 -6 -6z"/>
<path d="M2030 6290 c0 -5 5 -10 10 -10 6 0 10 5 10 10 0 6 -4 10 -10 10 -5 0
-10 -4 -10 -10z"/>
<path d="M1805 6271 c-2 -3 0 -20 3 -36 6 -29 6 -30 12 -5 3 15 15 27 30 30
23 6 23 7 -8 12 -18 2 -35 2 -37 -1z"/>
<path d="M1755 6220 c-3 -5 -1 -10 4 -10 6 0 11 5 11 10 0 6 -2 10 -4 10 -3 0
-8 -4 -11 -10z"/>
<path d="M2060 6220 c0 -5 5 -10 11 -10 5 0 7 5 4 10 -3 6 -8 10 -11 10 -2 0
-4 -4 -4 -10z"/>
<path d="M2025 6190 c4 -6 11 -8 16 -5 14 9 11 15 -7 15 -8 0 -12 -5 -9 -10z"/>
<path d="M1758 6163 c7 -3 16 -2 19 1 4 3 -2 6 -13 5 -11 0 -14 -3 -6 -6z"/>
<path d="M1780 6139 c0 -5 5 -7 10 -4 6 3 10 8 10 11 0 2 -4 4 -10 4 -5 0 -10
-5 -10 -11z"/>
<path d="M10935 6471 c-51 -23 -121 -102 -135 -150 -13 -47 -13 -106 1 -155
13 -47 91 -128 144 -150 169 -71 368 101 324 280 -12 50 -45 104 -83 137 -65
57 -175 73 -251 38z m189 -55 c18 -7 42 -26 54 -41 24 -31 30 -85 9 -85 -9 0
-12 -10 -9 -30 4 -25 1 -30 -16 -30 -35 0 -34 -17 3 -51 l35 -33 -26 -27 c-34
-36 -61 -43 -70 -17 -5 16 -12 18 -44 13 -33 -5 -38 -4 -37 11 3 33 -28 26
-42 -8 -8 -18 -14 -39 -14 -45 1 -18 -14 -16 -36 5 -10 9 -31 27 -46 40 -15
12 -25 28 -22 36 3 7 1 19 -3 27 -6 10 -2 17 13 26 20 10 20 12 5 18 -24 10
-23 35 2 35 25 0 25 7 -1 49 l-20 34 27 28 c29 30 53 38 55 17 0 -10 2 -10 6
0 2 6 19 12 36 12 30 -1 31 -1 13 -15 -11 -8 -17 -18 -13 -21 10 -10 77 25 77
41 0 11 9 19 28 24 1 1 17 -5 36 -13z m-24 -346 c0 -5 -5 -10 -11 -10 -5 0 -7
5 -4 10 3 6 8 10 11 10 2 0 4 -4 4 -10z"/>
<path d="M11880 6111 c0 -26 -3 -90 -6 -142 -5 -64 -3 -91 4 -84 5 6 13 48 16
95 3 47 9 103 12 126 5 32 2 42 -10 47 -13 5 -16 -2 -16 -42z"/>
<path d="M3609 6034 c-49 -26 -63 -51 -63 -110 1 -59 17 -85 66 -110 35 -18
60 -18 100 2 94 44 88 179 -9 219 -42 18 -59 18 -94 -1z m105 -68 c11 -65 0
-107 -19 -76 -4 6 -14 9 -22 8 -9 -2 -18 3 -20 10 -3 6 0 12 6 12 6 0 11 7 11
15 0 8 -4 15 -10 15 -5 0 -10 -7 -10 -15 0 -8 -6 -15 -12 -15 -7 -1 3 -14 22
-30 l34 -30 -38 0 c-46 0 -63 15 -64 59 -1 29 1 31 12 16 11 -16 14 -15 29 8
17 27 14 39 -9 30 -8 -3 -14 0 -14 5 0 12 43 19 78 13 13 -2 24 -12 26 -25z"/>
<path d="M9290 6029 c-54 -20 -78 -111 -43 -169 53 -91 193 -48 193 60 0 44
-34 96 -72 109 -36 13 -44 13 -78 0z m91 -61 c23 -29 23 -42 2 -79 -14 -24
-24 -29 -55 -29 -35 0 -38 2 -48 42 -16 58 1 88 48 88 23 0 40 -7 53 -22z"/>
<path d="M11850 5756 c0 -41 -4 -77 -9 -81 -6 -3 -13 -37 -17 -75 -3 -39 -11
-70 -15 -70 -5 0 -9 -20 -9 -43 0 -24 -7 -66 -15 -93 -8 -27 -15 -66 -15 -86
0 -21 -4 -38 -10 -38 -5 0 -10 -21 -10 -47 0 -27 -7 -57 -15 -67 -8 -11 -15
-32 -15 -47 0 -15 -4 -31 -10 -34 -5 -3 -10 -16 -10 -29 0 -12 -11 -54 -24
-92 -13 -38 -32 -96 -41 -129 -9 -33 -21 -69 -25 -80 -16 -40 -19 -54 -11 -59
15 -10 86 191 120 339 7 28 19 63 27 79 8 16 14 43 14 60 0 17 5 47 11 66 5
19 14 58 19 85 5 28 14 70 20 95 5 25 15 77 20 115 6 39 14 86 20 105 14 55
22 200 10 200 -6 0 -10 -30 -10 -74z"/>
<path d="M1025 5787 c-16 -26 -19 -26 -96 -21 -49 4 -79 2 -79 -4 0 -22 30
-31 100 -31 88 0 102 -11 98 -81 l-3 -45 -87 -3 c-69 -2 -88 -6 -88 -17 0 -9
10 -15 23 -16 47 -1 153 -10 164 -14 6 -2 15 -25 19 -51 9 -61 -7 -74 -90 -74
-113 0 -117 -41 -4 -45 35 -2 72 -3 83 -4 23 -1 48 -49 43 -83 -3 -21 -9 -23
-83 -26 -44 -2 -83 -7 -88 -11 -4 -4 -1 -16 7 -26 11 -16 26 -19 87 -18 41 1
81 -3 91 -8 20 -11 32 -60 23 -90 -7 -20 -12 -21 -80 -16 -59 5 -75 4 -86 -9
-20 -25 5 -34 96 -34 44 0 85 -4 91 -8 21 -14 34 -51 28 -80 -6 -28 -10 -30
-43 -29 -87 3 -131 -3 -131 -18 0 -20 10 -23 103 -29 43 -3 85 -10 93 -17 8
-6 14 -26 14 -44 0 -32 -2 -33 -50 -40 -27 -4 -54 -4 -59 0 -12 7 -51 -12 -51
-25 0 -28 34 -40 110 -40 72 0 79 -2 94 -26 10 -14 16 -35 14 -47 -3 -21 -8
-22 -80 -21 -75 1 -78 0 -78 -21 0 -36 23 -46 111 -50 91 -3 104 -11 112 -68
l6 -38 -60 4 c-32 2 -62 7 -65 10 -8 8 -44 -11 -44 -23 0 -5 7 -16 16 -24 11
-12 36 -16 98 -16 79 0 83 -1 94 -25 7 -14 12 -37 12 -51 0 -23 -4 -25 -37
-24 -113 5 -137 -6 -95 -43 14 -13 37 -17 88 -17 77 0 101 -11 106 -50 3 -23
0 -25 -47 -28 -99 -5 -119 -23 -75 -70 18 -19 32 -22 94 -22 58 0 76 -4 89
-18 25 -27 21 -42 -10 -44 -16 -1 -37 -3 -48 -4 -11 -1 -30 -2 -42 -3 -30 -1
-30 -34 -2 -62 19 -19 29 -21 91 -16 66 6 71 5 94 -20 35 -38 32 -63 -8 -61
-18 1 -50 1 -70 0 -33 -2 -38 -5 -38 -26 0 -32 21 -40 107 -41 66 0 75 -3 90
-25 10 -14 18 -29 18 -35 0 -5 -30 -14 -67 -19 -38 -4 -68 -13 -68 -19 0 -15
49 -57 68 -58 80 -4 119 -12 136 -28 27 -28 12 -41 -50 -41 -45 0 -54 -3 -54
-18 0 -22 52 -74 71 -72 54 8 117 -2 138 -21 35 -33 12 -51 -55 -43 -49 6 -54
5 -54 -13 0 -35 32 -53 106 -58 83 -6 114 -20 114 -52 0 -21 -4 -23 -55 -23
-47 0 -55 -3 -55 -19 0 -25 63 -49 115 -44 30 4 47 -1 68 -17 15 -12 27 -25
27 -30 0 -4 -25 -11 -56 -15 -44 -5 -55 -10 -52 -23 5 -28 63 -59 123 -65 38
-4 61 -12 71 -24 21 -28 17 -33 -31 -33 -58 0 -59 -17 -3 -64 36 -31 48 -36
94 -36 62 0 84 -7 84 -26 0 -10 -14 -14 -49 -14 -43 0 -49 -2 -44 -19 7 -28
75 -61 133 -65 52 -3 77 -16 66 -35 -4 -6 -23 -11 -42 -11 -40 0 -44 -17 -11
-47 36 -33 83 -53 126 -53 49 0 71 -8 71 -26 0 -10 -12 -14 -40 -14 -22 0 -40
-3 -40 -6 0 -35 80 -84 138 -84 44 0 80 -19 61 -31 -8 -5 -24 -9 -36 -9 -13 0
-23 -4 -23 -10 0 -26 88 -80 131 -80 22 0 24 -11 7 -28 -26 -26 60 -79 143
-89 32 -4 49 -11 49 -19 0 -8 -9 -14 -21 -14 -33 0 -19 -32 26 -57 22 -12 52
-23 67 -23 33 0 58 -9 58 -21 0 -5 -7 -9 -15 -9 -19 0 -19 -10 0 -37 16 -23
77 -48 112 -45 27 2 40 -16 19 -24 -40 -15 52 -84 112 -84 18 0 30 -5 29 -12
-1 -37 6 -47 43 -62 22 -9 59 -16 83 -16 47 0 73 -12 63 -29 -4 -6 -12 -9 -17
-6 -5 4 -9 -2 -9 -13 0 -22 63 -50 131 -59 34 -5 37 -7 22 -18 -15 -11 -12
-15 25 -34 23 -11 54 -21 69 -21 49 0 74 -11 69 -29 -3 -9 -2 -21 2 -27 9 -15
77 -34 122 -34 37 -1 102 -29 67 -30 -10 0 -17 -6 -15 -12 4 -12 51 -28 133
-45 28 -6 39 -13 37 -24 -2 -17 54 -39 100 -39 13 0 44 -13 69 -29 24 -16 65
-32 91 -35 26 -4 58 -16 71 -27 14 -10 33 -19 44 -19 10 -1 29 -7 43 -15 14
-8 36 -14 50 -15 14 0 50 -9 80 -21 30 -11 71 -24 90 -29 19 -4 64 -17 100
-28 36 -11 76 -22 90 -25 14 -3 50 -13 80 -22 30 -9 78 -20 105 -25 28 -5 79
-17 115 -25 36 -9 110 -25 165 -35 55 -11 119 -24 143 -30 23 -5 62 -10 85
-10 24 0 69 -5 99 -10 31 -6 89 -12 130 -14 79 -5 146 -13 159 -22 14 -8 725
-5 745 3 11 5 -134 11 -321 14 -334 6 -655 22 -674 33 -5 4 -43 11 -83 16 -40
6 -109 17 -153 26 -44 8 -102 19 -130 24 -27 5 -86 16 -130 25 -44 9 -93 19
-110 22 -16 3 -34 9 -40 13 -5 4 -28 10 -51 14 -44 6 -188 51 -216 66 -10 6
-23 10 -30 10 -31 0 -350 112 -483 169 -101 44 -142 63 -325 148 -47 22 -112
57 -145 79 -54 35 -86 54 -150 88 -11 6 -34 20 -50 31 -17 12 -57 34 -90 50
-82 40 -121 65 -260 171 -66 50 -157 117 -203 148 -46 32 -91 65 -101 74 -9 9
-44 40 -76 67 -32 28 -94 86 -139 129 -44 44 -111 103 -148 133 -37 29 -117
109 -179 178 -61 69 -116 128 -124 132 -12 8 -113 129 -215 258 -39 49 -127
157 -191 233 -10 12 -19 25 -19 28 0 2 -18 29 -40 59 -22 30 -40 56 -40 59 0
5 -173 287 -200 326 -10 14 -36 61 -58 105 -36 71 -63 127 -187 390 -63 133
-85 186 -85 200 0 7 -4 16 -9 19 -5 3 -12 23 -16 43 -4 21 -10 43 -14 48 -4 6
-16 37 -26 70 -10 33 -21 64 -26 70 -5 5 -9 19 -9 32 0 12 -6 37 -14 55 -8 18
-22 60 -31 93 -10 33 -21 64 -26 70 -5 5 -9 22 -9 37 0 16 -4 36 -9 46 -5 9
-16 51 -25 92 -9 41 -21 91 -25 110 -33 132 -41 172 -41 199 0 16 -4 32 -9 35
-4 3 -11 37 -15 76 -4 38 -11 70 -17 70 -5 0 -9 30 -9 68 0 84 -11 105 -35 69z"/>
<path d="M2842 5687 c-80 -46 -70 -171 18 -207 83 -34 166 61 131 152 -19 51
-103 82 -149 55z m100 -64 c22 -20 24 -63 3 -63 -8 0 -15 -7 -15 -15 0 -11
-10 -14 -40 -12 -34 2 -40 5 -40 25 0 31 3 37 18 35 10 -1 12 6 8 23 -6 21 -3
24 21 24 14 0 35 -7 45 -17z"/>
<path d="M10037 5652 c-11 -12 -17 -36 -17 -65 0 -39 4 -49 29 -66 45 -32 85
-28 115 12 33 42 33 77 1 111 -30 33 -102 37 -128 8z m98 -43 c4 -5 4 -21 1
-35 -8 -30 -45 -33 -70 -5 -16 17 -16 20 -1 35 19 18 60 21 70 5z"/>
<path d="M11570 4636 c0 -14 -4 -28 -10 -31 -5 -3 -10 -14 -10 -23 0 -9 -7
-30 -15 -46 -8 -15 -15 -36 -15 -45 0 -10 -7 -26 -15 -37 -8 -10 -15 -27 -15
-36 0 -10 -4 -18 -10 -18 -5 0 -10 -6 -10 -14 0 -8 -6 -27 -14 -43 -8 -15 -26
-55 -41 -88 -15 -33 -38 -83 -51 -110 -13 -28 -24 -58 -24 -67 0 -9 -3 -18 -7
-20 -5 -1 -17 -21 -28 -43 -11 -22 -30 -57 -42 -77 -13 -21 -23 -45 -23 -54 0
-24 33 21 65 87 15 30 33 66 41 81 8 14 14 33 14 41 0 9 4 17 9 19 17 6 128
256 138 311 3 15 9 27 13 27 4 0 15 24 25 53 9 28 25 67 36 85 23 40 25 72 4
72 -9 0 -15 -9 -15 -24z"/>
<path d="M11221 3844 c0 -11 3 -14 6 -6 3 7 2 16 -1 19 -3 4 -6 -2 -5 -13z"/>
<path d="M11176 3780 c-11 -22 -23 -40 -28 -40 -4 0 -8 -5 -8 -12 0 -10 -56
-105 -70 -118 -4 -4 -23 -37 -54 -95 -6 -11 -13 -22 -16 -25 -3 -3 -21 -29
-40 -57 -19 -29 -38 -53 -42 -53 -5 0 -8 -4 -8 -10 0 -21 -91 -139 -161 -209
-9 -9 -18 -21 -20 -28 -6 -19 -197 -249 -279 -337 -159 -170 -438 -440 -565
-547 -22 -19 -46 -40 -53 -46 -7 -7 -17 -13 -21 -13 -4 0 -23 -15 -42 -33 -19
-18 -51 -43 -72 -56 -21 -13 -46 -31 -55 -41 -16 -15 -92 -71 -131 -95 -9 -5
-26 -20 -38 -32 -12 -13 -25 -23 -29 -23 -4 0 -22 -11 -40 -25 -18 -14 -36
-25 -39 -25 -4 0 -38 -22 -76 -50 -38 -27 -71 -50 -74 -50 -3 0 -34 -17 -68
-38 -205 -126 -411 -232 -632 -327 -16 -7 -52 -23 -80 -35 -77 -34 -198 -80
-212 -80 -7 0 -21 -4 -31 -9 -28 -15 -174 -62 -210 -68 -18 -3 -35 -9 -38 -14
-3 -5 -14 -9 -25 -9 -19 0 -101 -23 -144 -40 -40 -16 -145 -40 -174 -40 -17 0
-33 -4 -36 -10 -3 -5 -27 -10 -53 -10 -26 -1 -65 -7 -87 -15 -22 -8 -59 -15
-83 -15 -23 0 -50 -4 -60 -9 -21 -11 -175 -31 -299 -40 -50 -3 -95 -10 -100
-15 -4 -5 34 -6 89 -4 60 3 101 1 107 -5 7 -7 18 -7 33 1 43 21 129 33 144 21
10 -8 18 -8 27 -1 15 12 81 31 134 37 67 8 197 36 243 52 66 23 108 27 126 12
13 -11 18 -10 32 9 19 23 103 47 138 38 16 -4 23 -1 27 13 4 18 60 38 124 45
11 1 33 10 47 19 14 9 29 17 35 17 5 0 22 7 37 15 16 8 41 15 56 15 15 0 33 8
40 19 7 10 29 22 48 26 19 4 41 11 50 15 8 4 40 16 70 26 30 10 66 24 80 31
14 7 35 13 46 13 12 0 27 7 34 15 17 20 93 55 120 55 11 0 23 7 27 16 3 8 29
27 57 40 45 22 166 86 236 125 71 41 275 175 326 216 23 18 44 33 48 33 4 0
16 9 28 20 12 11 30 20 40 20 10 0 28 10 40 23 13 12 46 38 74 57 28 19 78 58
110 86 33 29 109 94 169 145 61 51 116 99 123 106 7 6 30 22 52 34 22 13 40
27 40 33 0 13 99 116 111 116 5 0 9 6 9 14 0 16 99 106 118 106 6 0 12 7 12
16 0 9 28 45 63 79 34 35 73 78 87 96 14 18 35 42 48 53 12 11 22 26 22 33 0
7 4 13 8 13 5 0 28 27 52 60 24 33 49 60 56 60 7 0 16 10 20 23 4 12 9 24 13
27 16 13 91 110 91 117 0 4 10 20 23 34 23 26 30 36 75 107 15 24 55 84 90
133 34 49 62 93 62 97 0 4 11 24 25 44 29 42 85 148 85 160 0 20 -17 4 -34
-32z"/>
<path d="M7246 2372 c-13 -3 -16 -20 -17 -100 0 -53 -4 -133 -9 -177 -10 -97
-1 -161 35 -240 15 -33 33 -76 42 -95 9 -19 30 -66 48 -105 18 -38 40 -88 49
-110 27 -63 39 -85 46 -85 3 0 20 20 37 44 41 59 127 122 199 147 121 42 121
35 -4 157 -63 62 -117 124 -127 147 -18 39 -18 41 10 149 31 124 32 120 -49
153 -21 9 -85 39 -141 67 -57 28 -110 50 -119 48z m151 -119 c114 -54 123 -61
112 -88 -4 -11 -8 -34 -8 -52 -1 -17 -5 -35 -11 -38 -15 -9 -12 -98 4 -137 8
-19 53 -75 100 -124 47 -49 82 -92 78 -96 -4 -4 -34 -21 -67 -38 -33 -18 -84
-55 -112 -83 -29 -28 -53 -45 -53 -38 0 7 -13 42 -30 78 -16 35 -30 69 -30 74
0 5 -4 9 -10 9 -5 0 -10 8 -10 17 0 10 -11 40 -24 68 -24 50 -42 91 -66 152
-8 22 -10 56 -6 103 3 38 9 103 12 143 5 75 10 97 19 97 2 0 49 -21 102 -47z"/>
<path d="M5685 2345 c-27 -13 -96 -45 -152 -71 -56 -25 -104 -51 -106 -58 -4
-10 6 -50 34 -142 27 -89 4 -136 -135 -274 -42 -41 -76 -79 -76 -85 0 -5 45
-32 99 -58 78 -37 111 -60 150 -103 28 -31 51 -62 51 -69 0 -23 21 -28 36 -9
13 17 74 140 74 149 0 2 14 34 31 72 95 208 99 222 99 306 0 87 -17 306 -26
342 -7 30 -15 30 -79 0z"/>
<path d="M5200 2124 c-41 -18 -97 -43 -125 -55 -27 -12 -88 -40 -135 -62 -180
-84 -226 -105 -265 -122 -22 -10 -74 -33 -115 -52 -41 -19 -104 -48 -140 -65
-89 -40 -115 -55 -114 -64 3 -16 265 -133 379 -169 22 -7 78 -27 124 -43 l84
-30 28 31 c16 17 29 35 29 40 0 26 113 161 248 296 171 171 161 150 134 267
-17 76 -22 77 -132 28z"/>
<path d="M7685 2123 c-3 -16 -10 -44 -15 -64 -6 -20 -10 -44 -10 -53 0 -10 73
-92 163 -184 89 -92 176 -185 192 -207 16 -22 32 -42 35 -45 4 -3 16 -22 29
-42 22 -37 54 -49 77 -30 5 4 34 16 64 26 52 18 243 99 358 152 55 26 66 49
30 63 -13 5 -67 30 -121 55 -53 25 -99 46 -101 46 -2 0 -96 44 -208 99 -111
54 -225 109 -253 121 -27 12 -83 38 -123 56 -91 42 -110 43 -117 7z m73 -42
c9 -6 67 -33 127 -61 61 -29 139 -65 175 -82 36 -17 74 -34 85 -38 11 -5 81
-37 155 -73 74 -35 154 -73 177 -83 65 -29 63 -33 -67 -86 -36 -15 -81 -34
-110 -46 -14 -6 -42 -18 -62 -26 -21 -9 -54 -23 -74 -32 -20 -9 -37 -14 -38
-12 -2 1 -27 36 -56 77 -61 86 -95 125 -204 230 -168 161 -161 152 -150 210 7
33 14 37 42 22z"/>
<path d="M7193 1718 c-158 -135 -226 -252 -248 -425 -9 -67 -3 -69 113 -54 48
7 119 17 157 22 39 5 102 15 140 22 66 12 70 14 73 41 2 16 -1 33 -7 39 -6 6
-11 17 -11 23 0 7 -16 48 -36 91 -20 43 -42 92 -49 108 -56 127 -76 165 -84
165 -6 0 -27 -15 -48 -32z m51 -84 c4 -13 11 -24 16 -24 6 0 10 -6 10 -14 0
-8 17 -50 37 -93 36 -76 63 -141 63 -154 0 -14 -192 -49 -303 -56 l-68 -5 7
39 c4 21 11 46 15 55 5 9 9 24 9 34 0 23 101 173 146 217 40 38 59 39 68 1z"/>
<path d="M5752 1708 c-9 -12 -72 -143 -105 -218 -49 -113 -69 -170 -65 -186 4
-20 25 -26 168 -43 41 -6 104 -14 140 -20 98 -16 159 -14 167 5 12 32 -32 184
-77 265 -31 58 -59 90 -135 157 -61 54 -76 60 -93 40z"/>
<path d="M5166 1637 c-17 -18 -51 -57 -76 -86 -88 -103 -93 -125 -29 -141 19
-5 61 -16 94 -25 33 -9 76 -20 95 -25 19 -5 64 -16 100 -25 36 -9 91 -19 123
-22 l57 -5 0 58 c0 77 -38 145 -112 201 -54 41 -177 103 -205 103 -9 0 -30
-15 -47 -33z"/>
<path d="M7765 1644 c-73 -26 -159 -73 -197 -107 -51 -46 -88 -117 -88 -172 0
-49 19 -63 61 -46 13 5 58 17 99 26 41 9 86 20 100 24 14 5 54 17 90 26 96 26
150 46 150 57 0 27 -149 209 -170 207 -3 0 -23 -7 -45 -15z m99 -106 c25 -29
46 -56 46 -60 0 -11 -223 -75 -293 -85 -20 -3 -40 -9 -43 -14 -3 -5 -12 -9
-20 -9 -15 0 -21 56 -6 62 4 2 20 19 35 40 16 20 42 43 60 52 18 9 39 21 47
25 35 21 87 41 107 41 14 0 38 -19 67 -52z"/>
</g>
</svg>
